M48
; DRILL file {KiCad (5.1.8)-1} date 04/18/21 10:22:10
; FORMAT={-:-/ absolute / inch / decimal}
; #@! TF.CreationDate,2021-04-18T10:22:10-07:00
; #@! TF.GenerationSoftware,Kicad,Pcbnew,(5.1.8)-1
FMAT,2
INCH
T1C0.0157
T2C0.0236
T3C0.0276
T4C0.0315
T5C0.0354
T6C0.0394
T7C0.0440
T8C0.0984
%
G90
G05
T1
X4.9213Y-2.2146
X4.9213Y-2.7067
X4.9213Y-2.9528
X4.9213Y-3.1988
X4.9213Y-4.1831
X4.9213Y-4.4291
X4.9213Y-4.6752
X4.99Y-2.38
X5.01Y-2.61
X5.1673Y-2.4606
X5.1673Y-2.7067
X5.1673Y-3.6909
X5.1673Y-3.937
X5.1673Y-4.4291
X5.1673Y-4.6752
X5.195Y-4.295
X5.265Y-4.18
X5.39Y-4.0915
X5.4134Y-4.6752
X5.415Y-4.41
X5.47Y-4.1
X5.485Y-3.96
X5.58Y-4.4
X5.585Y-3.42
X5.61Y-4.155
X5.63Y-4.35
X5.6594Y-2.4606
X5.6594Y-2.7067
X5.73Y-4.005
X5.745Y-4.155
X5.765Y-2.31
X5.795Y-4.25
X5.84Y-4.275
X5.84Y-4.35
X5.84Y-4.54
X5.88Y-2.525
X5.9055Y-2.2146
X5.9055Y-2.4606
X5.9055Y-3.1988
X5.9055Y-3.4449
X5.9055Y-3.6909
X5.915Y-3.55
X5.92Y-2.31
X5.94Y-4.175
X6.04Y-2.525
X6.135Y-4.06
X6.1516Y-3.1988
X6.1516Y-3.4449
X6.1516Y-3.6909
X6.1516Y-4.6752
X6.18Y-2.525
X6.18Y-2.64
X6.19Y-3.865
X6.19Y-4.3
X6.23Y-3.0
X6.25Y-2.81
X6.25Y-4.135
X6.2675Y-3.5225
X6.355Y-3.82
X6.37Y-4.18
X6.3976Y-2.2146
X6.3976Y-3.1988
X6.3976Y-3.4449
X6.3976Y-3.6909
X6.405Y-4.095
X6.415Y-3.9
X6.48Y-3.895
X6.525Y-4.355
X6.525Y-4.455
X6.53Y-3.83
X6.53Y-3.87
X6.535Y-4.095
X6.56Y-3.715
X6.6437Y-2.2146
X6.6437Y-2.4606
X6.6437Y-2.7067
X6.6437Y-2.9528
X6.6437Y-3.1988
X6.6437Y-3.4449
X6.6437Y-3.6909
X6.6437Y-3.937
X6.6437Y-4.1831
X6.8898Y-2.2146
X6.8898Y-2.4606
X6.8898Y-2.7067
X6.8898Y-2.9528
X6.8898Y-3.1988
T2
X5.18Y-3.155
X5.18Y-3.2337
T3
X6.8309Y-4.1346
X6.8309Y-4.4654
X6.9294Y-4.1346
X6.9294Y-4.4654
X5.09Y-2.61
X5.29Y-2.61
X6.2546Y-4.6709
X6.2546Y-4.7694
X6.5854Y-4.6709
X6.5854Y-4.7694
X6.8309Y-3.6246
X6.8309Y-3.9554
X6.9294Y-3.6246
X6.9294Y-3.9554
X6.055Y-3.785
X6.055Y-3.985
X5.295Y-2.755
X5.495Y-2.755
X6.15Y-3.585
X6.15Y-3.785
T4
X5.04Y-3.825
X5.04Y-4.125
X5.63Y-2.61
X5.7284Y-2.61
X4.835Y-2.415
X4.835Y-2.5134
X5.33Y-4.65
X5.63Y-4.65
X5.8316Y-3.78
X5.93Y-3.78
X6.41Y-2.525
X6.5084Y-2.525
T5
X5.31Y-2.38
X5.41Y-2.38
T6
X6.83Y-4.6
X6.83Y-4.73
X6.87Y-3.39
X6.87Y-3.52
X5.8016Y-2.99
X5.9Y-2.99
X5.9984Y-2.99
X5.8216Y-4.68
X5.92Y-4.68
X6.0184Y-4.68
X5.3516Y-2.99
X5.45Y-2.99
X5.5484Y-2.99
X4.87Y-3.58
X4.87Y-3.68
X4.87Y-3.78
X5.58Y-2.21
X5.68Y-2.21
X4.885Y-3.38
X4.985Y-3.38
X5.085Y-3.38
X5.04Y-2.21
X5.14Y-2.21
T7
X5.35Y-3.18
X5.35Y-3.28
X5.35Y-3.38
X5.35Y-3.48
X5.35Y-3.58
X5.35Y-3.68
X5.35Y-3.78
X5.35Y-3.88
X5.65Y-3.18
X5.65Y-3.28
X5.65Y-3.38
X5.65Y-3.48
X5.65Y-3.58
X5.65Y-3.68
X5.65Y-3.78
X5.65Y-3.88
T8
X5.03Y-4.54
T0
M30
