%TF.GenerationSoftware,KiCad,Pcbnew,(5.1.8)-1*%
%TF.CreationDate,2021-04-12T08:25:29-07:00*%
%TF.ProjectId,coffee-spring21,636f6666-6565-42d7-9370-72696e673231,rev?*%
%TF.SameCoordinates,Original*%
%TF.FileFunction,Copper,L1,Top*%
%TF.FilePolarity,Positive*%
%FSLAX46Y46*%
G04 Gerber Fmt 4.6, Leading zero omitted, Abs format (unit mm)*
G04 Created by KiCad (PCBNEW (5.1.8)-1) date 2021-04-12 08:25:29*
%MOMM*%
%LPD*%
G01*
G04 APERTURE LIST*
%TA.AperFunction,ComponentPad*%
%ADD10R,1.700000X1.700000*%
%TD*%
%TA.AperFunction,ComponentPad*%
%ADD11O,1.700000X1.700000*%
%TD*%
%TA.AperFunction,ComponentPad*%
%ADD12R,1.600000X1.600000*%
%TD*%
%TA.AperFunction,ComponentPad*%
%ADD13C,1.600000*%
%TD*%
%TA.AperFunction,ComponentPad*%
%ADD14R,1.200000X1.200000*%
%TD*%
%TA.AperFunction,ComponentPad*%
%ADD15C,1.200000*%
%TD*%
%TA.AperFunction,ComponentPad*%
%ADD16R,1.800000X1.800000*%
%TD*%
%TA.AperFunction,ComponentPad*%
%ADD17C,1.800000*%
%TD*%
%TA.AperFunction,ComponentPad*%
%ADD18C,1.676400*%
%TD*%
%TA.AperFunction,ComponentPad*%
%ADD19R,1.676400X1.676400*%
%TD*%
%TA.AperFunction,ComponentPad*%
%ADD20C,1.508000*%
%TD*%
%TA.AperFunction,ComponentPad*%
%ADD21R,1.508000X1.508000*%
%TD*%
%TA.AperFunction,SMDPad,CuDef*%
%ADD22R,3.250000X2.150000*%
%TD*%
%TA.AperFunction,SMDPad,CuDef*%
%ADD23R,0.950000X2.150000*%
%TD*%
%TA.AperFunction,SMDPad,CuDef*%
%ADD24R,1.420000X0.470000*%
%TD*%
%TA.AperFunction,SMDPad,CuDef*%
%ADD25R,1.981200X0.533400*%
%TD*%
%TA.AperFunction,ComponentPad*%
%ADD26R,2.500000X1.600000*%
%TD*%
%TA.AperFunction,SMDPad,CuDef*%
%ADD27R,5.600000X1.500000*%
%TD*%
%TA.AperFunction,ComponentPad*%
%ADD28R,1.600000X2.500000*%
%TD*%
%TA.AperFunction,SMDPad,CuDef*%
%ADD29R,1.500000X5.600000*%
%TD*%
%TA.AperFunction,SMDPad,CuDef*%
%ADD30R,2.540000X1.650000*%
%TD*%
%TA.AperFunction,ComponentPad*%
%ADD31C,1.400000*%
%TD*%
%TA.AperFunction,ComponentPad*%
%ADD32O,1.400000X1.400000*%
%TD*%
%TA.AperFunction,ComponentPad*%
%ADD33O,1.600000X1.600000*%
%TD*%
%TA.AperFunction,ViaPad*%
%ADD34C,0.800000*%
%TD*%
%TA.AperFunction,ViaPad*%
%ADD35C,5.000000*%
%TD*%
%TA.AperFunction,ViaPad*%
%ADD36C,2.500000*%
%TD*%
%TA.AperFunction,Conductor*%
%ADD37C,0.250000*%
%TD*%
%TA.AperFunction,Conductor*%
%ADD38C,0.600000*%
%TD*%
%TA.AperFunction,Conductor*%
%ADD39C,0.800000*%
%TD*%
%TA.AperFunction,Conductor*%
%ADD40C,0.500000*%
%TD*%
%TA.AperFunction,Conductor*%
%ADD41C,0.400000*%
%TD*%
G04 APERTURE END LIST*
%TO.P,C12,1*%
%TO.N,GND*%
%TA.AperFunction,SMDPad,CuDef*%
G36*
G01*
X165956000Y-102862000D02*
X165006000Y-102862000D01*
G75*
G02*
X164756000Y-102612000I0J250000D01*
G01*
X164756000Y-102112000D01*
G75*
G02*
X165006000Y-101862000I250000J0D01*
G01*
X165956000Y-101862000D01*
G75*
G02*
X166206000Y-102112000I0J-250000D01*
G01*
X166206000Y-102612000D01*
G75*
G02*
X165956000Y-102862000I-250000J0D01*
G01*
G37*
%TD.AperFunction*%
%TO.P,C12,2*%
%TO.N,5V_OUT*%
%TA.AperFunction,SMDPad,CuDef*%
G36*
G01*
X165956000Y-100962000D02*
X165006000Y-100962000D01*
G75*
G02*
X164756000Y-100712000I0J250000D01*
G01*
X164756000Y-100212000D01*
G75*
G02*
X165006000Y-99962000I250000J0D01*
G01*
X165956000Y-99962000D01*
G75*
G02*
X166206000Y-100212000I0J-250000D01*
G01*
X166206000Y-100712000D01*
G75*
G02*
X165956000Y-100962000I-250000J0D01*
G01*
G37*
%TD.AperFunction*%
%TD*%
%TO.P,R1,1*%
%TO.N,12V_OUT*%
%TA.AperFunction,SMDPad,CuDef*%
G36*
G01*
X127861000Y-60902001D02*
X127861000Y-60001999D01*
G75*
G02*
X128110999Y-59752000I249999J0D01*
G01*
X128636001Y-59752000D01*
G75*
G02*
X128886000Y-60001999I0J-249999D01*
G01*
X128886000Y-60902001D01*
G75*
G02*
X128636001Y-61152000I-249999J0D01*
G01*
X128110999Y-61152000D01*
G75*
G02*
X127861000Y-60902001I0J249999D01*
G01*
G37*
%TD.AperFunction*%
%TO.P,R1,2*%
%TO.N,Net-(D1-Pad2)*%
%TA.AperFunction,SMDPad,CuDef*%
G36*
G01*
X129686000Y-60902001D02*
X129686000Y-60001999D01*
G75*
G02*
X129935999Y-59752000I249999J0D01*
G01*
X130461001Y-59752000D01*
G75*
G02*
X130711000Y-60001999I0J-249999D01*
G01*
X130711000Y-60902001D01*
G75*
G02*
X130461001Y-61152000I-249999J0D01*
G01*
X129935999Y-61152000D01*
G75*
G02*
X129686000Y-60902001I0J249999D01*
G01*
G37*
%TD.AperFunction*%
%TD*%
D10*
%TO.P,BT1,1*%
%TO.N,12V_OUT*%
X128016000Y-56134000D03*
D11*
%TO.P,BT1,2*%
%TO.N,Net-(BT1-Pad2)*%
X130556000Y-56134000D03*
%TD*%
%TO.P,BT2,2*%
%TO.N,GND*%
X144272000Y-56134000D03*
D10*
%TO.P,BT2,1*%
%TO.N,Net-(BT1-Pad2)*%
X141732000Y-56134000D03*
%TD*%
%TO.P,C9,2*%
%TO.N,Net-(C9-Pad2)*%
%TA.AperFunction,SMDPad,CuDef*%
G36*
G01*
X147099000Y-87638000D02*
X148049000Y-87638000D01*
G75*
G02*
X148299000Y-87888000I0J-250000D01*
G01*
X148299000Y-88388000D01*
G75*
G02*
X148049000Y-88638000I-250000J0D01*
G01*
X147099000Y-88638000D01*
G75*
G02*
X146849000Y-88388000I0J250000D01*
G01*
X146849000Y-87888000D01*
G75*
G02*
X147099000Y-87638000I250000J0D01*
G01*
G37*
%TD.AperFunction*%
%TO.P,C9,1*%
%TO.N,Net-(C9-Pad1)*%
%TA.AperFunction,SMDPad,CuDef*%
G36*
G01*
X147099000Y-85738000D02*
X148049000Y-85738000D01*
G75*
G02*
X148299000Y-85988000I0J-250000D01*
G01*
X148299000Y-86488000D01*
G75*
G02*
X148049000Y-86738000I-250000J0D01*
G01*
X147099000Y-86738000D01*
G75*
G02*
X146849000Y-86488000I0J250000D01*
G01*
X146849000Y-85988000D01*
G75*
G02*
X147099000Y-85738000I250000J0D01*
G01*
G37*
%TD.AperFunction*%
%TD*%
D12*
%TO.P,C5,1*%
%TO.N,Net-(C5-Pad1)*%
X143002000Y-66294000D03*
D13*
%TO.P,C5,2*%
%TO.N,GND*%
X145502000Y-66294000D03*
%TD*%
%TO.P,C7,2*%
%TO.N,Net-(C7-Pad2)*%
X148122000Y-96012000D03*
D12*
%TO.P,C7,1*%
%TO.N,RAMP_SIGNAL*%
X150622000Y-96012000D03*
%TD*%
D14*
%TO.P,C13,1*%
%TO.N,Net-(C13-Pad1)*%
X131572000Y-80137000D03*
D15*
%TO.P,C13,2*%
%TO.N,GND*%
X131572000Y-82137000D03*
%TD*%
D16*
%TO.P,D1,1*%
%TO.N,GND*%
X137414000Y-60452000D03*
D17*
%TO.P,D1,2*%
%TO.N,Net-(D1-Pad2)*%
X134874000Y-60452000D03*
%TD*%
D12*
%TO.P,C8,1*%
%TO.N,12V_OUT*%
X122809000Y-61341000D03*
D13*
%TO.P,C8,2*%
%TO.N,GND*%
X122809000Y-63841000D03*
%TD*%
D18*
%TO.P,G1,16*%
%TO.N,Net-(G1-Pad16)*%
X135890000Y-98552000D03*
%TO.P,G1,15*%
%TO.N,Net-(G1-Pad15)*%
X135890000Y-96012000D03*
%TO.P,G1,14*%
%TO.N,Net-(G1-Pad14)*%
X135890000Y-93472000D03*
%TO.P,G1,13*%
%TO.N,Net-(G1-Pad13)*%
X135890000Y-90932000D03*
%TO.P,G1,12*%
%TO.N,GND*%
X135890000Y-88392000D03*
%TO.P,G1,11*%
%TO.N,Net-(G1-Pad11)*%
X135890000Y-85852000D03*
%TO.P,G1,10*%
%TO.N,Net-(C13-Pad1)*%
X135890000Y-83312000D03*
%TO.P,G1,9*%
%TO.N,Net-(G1-Pad9)*%
X135890000Y-80772000D03*
%TO.P,G1,8*%
%TO.N,Net-(G1-Pad8)*%
X143510000Y-80772000D03*
%TO.P,G1,7*%
%TO.N,Net-(G1-Pad7)*%
X143510000Y-83312000D03*
%TO.P,G1,6*%
%TO.N,Net-(C9-Pad1)*%
X143510000Y-85852000D03*
%TO.P,G1,5*%
%TO.N,Net-(C9-Pad2)*%
X143510000Y-88392000D03*
%TO.P,G1,4*%
%TO.N,12V_OUT*%
X143510000Y-90932000D03*
%TO.P,G1,3*%
%TO.N,Net-(G1-Pad3)*%
X143510000Y-93472000D03*
%TO.P,G1,2*%
%TO.N,Net-(C7-Pad2)*%
X143510000Y-96012000D03*
D19*
%TO.P,G1,1*%
%TO.N,GND*%
X143510000Y-98552000D03*
%TD*%
D20*
%TO.P,RV2,3*%
%TO.N,Net-(C5-Pad1)*%
X140930000Y-75946000D03*
%TO.P,RV2,2*%
X138430000Y-75946000D03*
D21*
%TO.P,RV2,1*%
%TO.N,Net-(G1-Pad3)*%
X135930000Y-75946000D03*
%TD*%
%TO.P,RV3,1*%
%TO.N,Net-(R14-Pad2)*%
X147360000Y-75946000D03*
D20*
%TO.P,RV3,2*%
%TO.N,GND*%
X149860000Y-75946000D03*
%TO.P,RV3,3*%
X152360000Y-75946000D03*
%TD*%
D22*
%TO.P,VR1,4*%
%TO.N,GND*%
X154686000Y-55901000D03*
D23*
%TO.P,VR1,3*%
%TO.N,5V_OUT*%
X156986000Y-61701000D03*
%TO.P,VR1,2*%
%TO.N,GND*%
X154686000Y-61701000D03*
%TO.P,VR1,1*%
%TO.N,Net-(BT1-Pad2)*%
X152386000Y-61701000D03*
%TD*%
%TO.P,C11,2*%
%TO.N,5V_OUT*%
%TA.AperFunction,SMDPad,CuDef*%
G36*
G01*
X162654000Y-100896000D02*
X161704000Y-100896000D01*
G75*
G02*
X161454000Y-100646000I0J250000D01*
G01*
X161454000Y-100146000D01*
G75*
G02*
X161704000Y-99896000I250000J0D01*
G01*
X162654000Y-99896000D01*
G75*
G02*
X162904000Y-100146000I0J-250000D01*
G01*
X162904000Y-100646000D01*
G75*
G02*
X162654000Y-100896000I-250000J0D01*
G01*
G37*
%TD.AperFunction*%
%TO.P,C11,1*%
%TO.N,GND*%
%TA.AperFunction,SMDPad,CuDef*%
G36*
G01*
X162654000Y-102796000D02*
X161704000Y-102796000D01*
G75*
G02*
X161454000Y-102546000I0J250000D01*
G01*
X161454000Y-102046000D01*
G75*
G02*
X161704000Y-101796000I250000J0D01*
G01*
X162654000Y-101796000D01*
G75*
G02*
X162904000Y-102046000I0J-250000D01*
G01*
X162904000Y-102546000D01*
G75*
G02*
X162654000Y-102796000I-250000J0D01*
G01*
G37*
%TD.AperFunction*%
%TD*%
D24*
%TO.P,U1,1*%
%TO.N,Net-(C6-Pad1)*%
X159633000Y-95545000D03*
%TO.P,U1,2*%
%TO.N,RAMP_SIGNAL*%
X159633000Y-96195000D03*
%TO.P,U1,3*%
%TO.N,GND*%
X159633000Y-96845000D03*
%TO.P,U1,4*%
%TO.N,3.6V_OUT*%
X159633000Y-97495000D03*
%TO.P,U1,5*%
%TO.N,5V_OUT*%
X163963000Y-97495000D03*
%TO.P,U1,6*%
X163963000Y-96845000D03*
%TO.P,U1,7*%
%TO.N,Net-(U1-Pad7)*%
X163963000Y-96195000D03*
%TO.P,U1,8*%
%TO.N,GND*%
X163963000Y-95545000D03*
%TD*%
%TO.P,C2,1*%
%TO.N,Net-(BT1-Pad2)*%
%TA.AperFunction,SMDPad,CuDef*%
G36*
G01*
X147607000Y-59764000D02*
X148557000Y-59764000D01*
G75*
G02*
X148807000Y-60014000I0J-250000D01*
G01*
X148807000Y-60514000D01*
G75*
G02*
X148557000Y-60764000I-250000J0D01*
G01*
X147607000Y-60764000D01*
G75*
G02*
X147357000Y-60514000I0J250000D01*
G01*
X147357000Y-60014000D01*
G75*
G02*
X147607000Y-59764000I250000J0D01*
G01*
G37*
%TD.AperFunction*%
%TO.P,C2,2*%
%TO.N,GND*%
%TA.AperFunction,SMDPad,CuDef*%
G36*
G01*
X147607000Y-61664000D02*
X148557000Y-61664000D01*
G75*
G02*
X148807000Y-61914000I0J-250000D01*
G01*
X148807000Y-62414000D01*
G75*
G02*
X148557000Y-62664000I-250000J0D01*
G01*
X147607000Y-62664000D01*
G75*
G02*
X147357000Y-62414000I0J250000D01*
G01*
X147357000Y-61914000D01*
G75*
G02*
X147607000Y-61664000I250000J0D01*
G01*
G37*
%TD.AperFunction*%
%TD*%
D13*
%TO.P,C3,2*%
%TO.N,GND*%
X165314000Y-64135000D03*
D12*
%TO.P,C3,1*%
%TO.N,5V_OUT*%
X162814000Y-64135000D03*
%TD*%
%TO.P,C6,1*%
%TO.N,Net-(C6-Pad1)*%
%TA.AperFunction,SMDPad,CuDef*%
G36*
G01*
X159733000Y-93906000D02*
X158783000Y-93906000D01*
G75*
G02*
X158533000Y-93656000I0J250000D01*
G01*
X158533000Y-93156000D01*
G75*
G02*
X158783000Y-92906000I250000J0D01*
G01*
X159733000Y-92906000D01*
G75*
G02*
X159983000Y-93156000I0J-250000D01*
G01*
X159983000Y-93656000D01*
G75*
G02*
X159733000Y-93906000I-250000J0D01*
G01*
G37*
%TD.AperFunction*%
%TO.P,C6,2*%
%TO.N,GND*%
%TA.AperFunction,SMDPad,CuDef*%
G36*
G01*
X159733000Y-92006000D02*
X158783000Y-92006000D01*
G75*
G02*
X158533000Y-91756000I0J250000D01*
G01*
X158533000Y-91256000D01*
G75*
G02*
X158783000Y-91006000I250000J0D01*
G01*
X159733000Y-91006000D01*
G75*
G02*
X159983000Y-91256000I0J-250000D01*
G01*
X159983000Y-91756000D01*
G75*
G02*
X159733000Y-92006000I-250000J0D01*
G01*
G37*
%TD.AperFunction*%
%TD*%
%TO.P,C10,2*%
%TO.N,12V_OUT*%
%TA.AperFunction,SMDPad,CuDef*%
G36*
G01*
X146870000Y-90457000D02*
X146870000Y-91407000D01*
G75*
G02*
X146620000Y-91657000I-250000J0D01*
G01*
X146120000Y-91657000D01*
G75*
G02*
X145870000Y-91407000I0J250000D01*
G01*
X145870000Y-90457000D01*
G75*
G02*
X146120000Y-90207000I250000J0D01*
G01*
X146620000Y-90207000D01*
G75*
G02*
X146870000Y-90457000I0J-250000D01*
G01*
G37*
%TD.AperFunction*%
%TO.P,C10,1*%
%TO.N,GND*%
%TA.AperFunction,SMDPad,CuDef*%
G36*
G01*
X148770000Y-90457000D02*
X148770000Y-91407000D01*
G75*
G02*
X148520000Y-91657000I-250000J0D01*
G01*
X148020000Y-91657000D01*
G75*
G02*
X147770000Y-91407000I0J250000D01*
G01*
X147770000Y-90457000D01*
G75*
G02*
X148020000Y-90207000I250000J0D01*
G01*
X148520000Y-90207000D01*
G75*
G02*
X148770000Y-90457000I0J-250000D01*
G01*
G37*
%TD.AperFunction*%
%TD*%
%TO.P,R5,2*%
%TO.N,5V_OUT*%
%TA.AperFunction,SMDPad,CuDef*%
G36*
G01*
X157422001Y-69323000D02*
X156521999Y-69323000D01*
G75*
G02*
X156272000Y-69073001I0J249999D01*
G01*
X156272000Y-68547999D01*
G75*
G02*
X156521999Y-68298000I249999J0D01*
G01*
X157422001Y-68298000D01*
G75*
G02*
X157672000Y-68547999I0J-249999D01*
G01*
X157672000Y-69073001D01*
G75*
G02*
X157422001Y-69323000I-249999J0D01*
G01*
G37*
%TD.AperFunction*%
%TO.P,R5,1*%
%TO.N,3.6V_OUT*%
%TA.AperFunction,SMDPad,CuDef*%
G36*
G01*
X157422001Y-71148000D02*
X156521999Y-71148000D01*
G75*
G02*
X156272000Y-70898001I0J249999D01*
G01*
X156272000Y-70372999D01*
G75*
G02*
X156521999Y-70123000I249999J0D01*
G01*
X157422001Y-70123000D01*
G75*
G02*
X157672000Y-70372999I0J-249999D01*
G01*
X157672000Y-70898001D01*
G75*
G02*
X157422001Y-71148000I-249999J0D01*
G01*
G37*
%TD.AperFunction*%
%TD*%
%TO.P,R6,2*%
%TO.N,3.6V_OUT*%
%TA.AperFunction,SMDPad,CuDef*%
G36*
G01*
X157422001Y-73260000D02*
X156521999Y-73260000D01*
G75*
G02*
X156272000Y-73010001I0J249999D01*
G01*
X156272000Y-72484999D01*
G75*
G02*
X156521999Y-72235000I249999J0D01*
G01*
X157422001Y-72235000D01*
G75*
G02*
X157672000Y-72484999I0J-249999D01*
G01*
X157672000Y-73010001D01*
G75*
G02*
X157422001Y-73260000I-249999J0D01*
G01*
G37*
%TD.AperFunction*%
%TO.P,R6,1*%
%TO.N,GND*%
%TA.AperFunction,SMDPad,CuDef*%
G36*
G01*
X157422001Y-75085000D02*
X156521999Y-75085000D01*
G75*
G02*
X156272000Y-74835001I0J249999D01*
G01*
X156272000Y-74309999D01*
G75*
G02*
X156521999Y-74060000I249999J0D01*
G01*
X157422001Y-74060000D01*
G75*
G02*
X157672000Y-74309999I0J-249999D01*
G01*
X157672000Y-74835001D01*
G75*
G02*
X157422001Y-75085000I-249999J0D01*
G01*
G37*
%TD.AperFunction*%
%TD*%
%TO.P,R14,1*%
%TO.N,Net-(G1-Pad7)*%
%TA.AperFunction,SMDPad,CuDef*%
G36*
G01*
X147770001Y-83467000D02*
X146869999Y-83467000D01*
G75*
G02*
X146620000Y-83217001I0J249999D01*
G01*
X146620000Y-82691999D01*
G75*
G02*
X146869999Y-82442000I249999J0D01*
G01*
X147770001Y-82442000D01*
G75*
G02*
X148020000Y-82691999I0J-249999D01*
G01*
X148020000Y-83217001D01*
G75*
G02*
X147770001Y-83467000I-249999J0D01*
G01*
G37*
%TD.AperFunction*%
%TO.P,R14,2*%
%TO.N,Net-(R14-Pad2)*%
%TA.AperFunction,SMDPad,CuDef*%
G36*
G01*
X147770001Y-81642000D02*
X146869999Y-81642000D01*
G75*
G02*
X146620000Y-81392001I0J249999D01*
G01*
X146620000Y-80866999D01*
G75*
G02*
X146869999Y-80617000I249999J0D01*
G01*
X147770001Y-80617000D01*
G75*
G02*
X148020000Y-80866999I0J-249999D01*
G01*
X148020000Y-81392001D01*
G75*
G02*
X147770001Y-81642000I-249999J0D01*
G01*
G37*
%TD.AperFunction*%
%TD*%
D10*
%TO.P,SW1,1*%
%TO.N,GND*%
X124079000Y-85852000D03*
D11*
%TO.P,SW1,2*%
%TO.N,SYNC_OUT*%
X126619000Y-85852000D03*
%TO.P,SW1,3*%
%TO.N,Net-(G1-Pad11)*%
X129159000Y-85852000D03*
%TD*%
D25*
%TO.P,U2,14*%
%TO.N,N/C*%
X140030200Y-114427000D03*
%TO.P,U2,13*%
X140030200Y-113157000D03*
%TO.P,U2,12*%
X140030200Y-111887000D03*
%TO.P,U2,11*%
%TO.N,GND*%
X140030200Y-110617000D03*
%TO.P,U2,10*%
%TO.N,Net-(C17-Pad2)*%
X140030200Y-109347000D03*
%TO.P,U2,9*%
%TO.N,Net-(R27-Pad2)*%
X140030200Y-108077000D03*
%TO.P,U2,8*%
%TO.N,Net-(C16-Pad2)*%
X140030200Y-106807000D03*
%TO.P,U2,7*%
%TO.N,Net-(C14-Pad2)*%
X144957800Y-106807000D03*
%TO.P,U2,6*%
%TO.N,Net-(R22-Pad2)*%
X144957800Y-108077000D03*
%TO.P,U2,5*%
%TO.N,Net-(C15-Pad2)*%
X144957800Y-109347000D03*
%TO.P,U2,4*%
%TO.N,12V_OUT*%
X144957800Y-110617000D03*
%TO.P,U2,3*%
%TO.N,Net-(C4-Pad1)*%
X144957800Y-111887000D03*
%TO.P,U2,2*%
%TO.N,Net-(R18-Pad1)*%
X144957800Y-113157000D03*
%TO.P,U2,1*%
%TO.N,Net-(R19-Pad1)*%
X144957800Y-114427000D03*
%TD*%
D26*
%TO.P,U5,1*%
%TO.N,GND*%
X173506000Y-92066000D03*
D27*
%TO.P,U5,2*%
%TO.N,Net-(U1-Pad7)*%
X175006000Y-96266000D03*
D26*
%TO.P,U5,1*%
%TO.N,GND*%
X176006000Y-92066000D03*
%TO.P,U5,3*%
X173506000Y-100466000D03*
X176006000Y-100466000D03*
%TD*%
D28*
%TO.P,U6,3*%
%TO.N,GND*%
X158868000Y-121142000D03*
X158868000Y-118642000D03*
%TO.P,U6,1*%
X167268000Y-121142000D03*
D29*
%TO.P,U6,2*%
%TO.N,Net-(U6-Pad2)*%
X163068000Y-120142000D03*
D28*
%TO.P,U6,1*%
%TO.N,GND*%
X167268000Y-118642000D03*
%TD*%
D30*
%TO.P,U9,1*%
%TO.N,GND*%
X163068000Y-109223000D03*
%TO.P,U9,2*%
%TO.N,IF_SIGNAL*%
X163068000Y-111763000D03*
%TO.P,U9,3*%
%TO.N,Net-(U6-Pad2)*%
X163068000Y-114303000D03*
%TO.P,U9,6*%
%TO.N,Net-(U11-Pad2)*%
X168148000Y-109223000D03*
%TO.P,U9,5*%
%TO.N,GND*%
X168148000Y-111763000D03*
%TO.P,U9,4*%
X168148000Y-114303000D03*
%TD*%
D26*
%TO.P,U11,1*%
%TO.N,GND*%
X173506000Y-105020000D03*
D27*
%TO.P,U11,2*%
%TO.N,Net-(U11-Pad2)*%
X175006000Y-109220000D03*
D26*
%TO.P,U11,1*%
%TO.N,GND*%
X176006000Y-105020000D03*
%TO.P,U11,3*%
X173506000Y-113420000D03*
X176006000Y-113420000D03*
%TD*%
%TO.P,C4,2*%
%TO.N,IF_SIGNAL*%
%TA.AperFunction,SMDPad,CuDef*%
G36*
G01*
X158946000Y-112235000D02*
X158946000Y-111285000D01*
G75*
G02*
X159196000Y-111035000I250000J0D01*
G01*
X159696000Y-111035000D01*
G75*
G02*
X159946000Y-111285000I0J-250000D01*
G01*
X159946000Y-112235000D01*
G75*
G02*
X159696000Y-112485000I-250000J0D01*
G01*
X159196000Y-112485000D01*
G75*
G02*
X158946000Y-112235000I0J250000D01*
G01*
G37*
%TD.AperFunction*%
%TO.P,C4,1*%
%TO.N,Net-(C4-Pad1)*%
%TA.AperFunction,SMDPad,CuDef*%
G36*
G01*
X157046000Y-112235000D02*
X157046000Y-111285000D01*
G75*
G02*
X157296000Y-111035000I250000J0D01*
G01*
X157796000Y-111035000D01*
G75*
G02*
X158046000Y-111285000I0J-250000D01*
G01*
X158046000Y-112235000D01*
G75*
G02*
X157796000Y-112485000I-250000J0D01*
G01*
X157296000Y-112485000D01*
G75*
G02*
X157046000Y-112235000I0J250000D01*
G01*
G37*
%TD.AperFunction*%
%TD*%
%TO.P,C14,2*%
%TO.N,Net-(C14-Pad2)*%
%TA.AperFunction,SMDPad,CuDef*%
G36*
G01*
X149573000Y-105341000D02*
X148623000Y-105341000D01*
G75*
G02*
X148373000Y-105091000I0J250000D01*
G01*
X148373000Y-104591000D01*
G75*
G02*
X148623000Y-104341000I250000J0D01*
G01*
X149573000Y-104341000D01*
G75*
G02*
X149823000Y-104591000I0J-250000D01*
G01*
X149823000Y-105091000D01*
G75*
G02*
X149573000Y-105341000I-250000J0D01*
G01*
G37*
%TD.AperFunction*%
%TO.P,C14,1*%
%TO.N,Net-(C14-Pad1)*%
%TA.AperFunction,SMDPad,CuDef*%
G36*
G01*
X149573000Y-107241000D02*
X148623000Y-107241000D01*
G75*
G02*
X148373000Y-106991000I0J250000D01*
G01*
X148373000Y-106491000D01*
G75*
G02*
X148623000Y-106241000I250000J0D01*
G01*
X149573000Y-106241000D01*
G75*
G02*
X149823000Y-106491000I0J-250000D01*
G01*
X149823000Y-106991000D01*
G75*
G02*
X149573000Y-107241000I-250000J0D01*
G01*
G37*
%TD.AperFunction*%
%TD*%
%TO.P,C15,1*%
%TO.N,5V_OUT*%
%TA.AperFunction,SMDPad,CuDef*%
G36*
G01*
X152179000Y-103198000D02*
X153129000Y-103198000D01*
G75*
G02*
X153379000Y-103448000I0J-250000D01*
G01*
X153379000Y-103948000D01*
G75*
G02*
X153129000Y-104198000I-250000J0D01*
G01*
X152179000Y-104198000D01*
G75*
G02*
X151929000Y-103948000I0J250000D01*
G01*
X151929000Y-103448000D01*
G75*
G02*
X152179000Y-103198000I250000J0D01*
G01*
G37*
%TD.AperFunction*%
%TO.P,C15,2*%
%TO.N,Net-(C15-Pad2)*%
%TA.AperFunction,SMDPad,CuDef*%
G36*
G01*
X152179000Y-105098000D02*
X153129000Y-105098000D01*
G75*
G02*
X153379000Y-105348000I0J-250000D01*
G01*
X153379000Y-105848000D01*
G75*
G02*
X153129000Y-106098000I-250000J0D01*
G01*
X152179000Y-106098000D01*
G75*
G02*
X151929000Y-105848000I0J250000D01*
G01*
X151929000Y-105348000D01*
G75*
G02*
X152179000Y-105098000I250000J0D01*
G01*
G37*
%TD.AperFunction*%
%TD*%
%TO.P,C16,1*%
%TO.N,Net-(C16-Pad1)*%
%TA.AperFunction,SMDPad,CuDef*%
G36*
G01*
X130122000Y-106647000D02*
X130122000Y-105697000D01*
G75*
G02*
X130372000Y-105447000I250000J0D01*
G01*
X130872000Y-105447000D01*
G75*
G02*
X131122000Y-105697000I0J-250000D01*
G01*
X131122000Y-106647000D01*
G75*
G02*
X130872000Y-106897000I-250000J0D01*
G01*
X130372000Y-106897000D01*
G75*
G02*
X130122000Y-106647000I0J250000D01*
G01*
G37*
%TD.AperFunction*%
%TO.P,C16,2*%
%TO.N,Net-(C16-Pad2)*%
%TA.AperFunction,SMDPad,CuDef*%
G36*
G01*
X132022000Y-106647000D02*
X132022000Y-105697000D01*
G75*
G02*
X132272000Y-105447000I250000J0D01*
G01*
X132772000Y-105447000D01*
G75*
G02*
X133022000Y-105697000I0J-250000D01*
G01*
X133022000Y-106647000D01*
G75*
G02*
X132772000Y-106897000I-250000J0D01*
G01*
X132272000Y-106897000D01*
G75*
G02*
X132022000Y-106647000I0J250000D01*
G01*
G37*
%TD.AperFunction*%
%TD*%
%TO.P,C17,1*%
%TO.N,5V_OUT*%
%TA.AperFunction,SMDPad,CuDef*%
G36*
G01*
X135202000Y-102837000D02*
X135202000Y-101887000D01*
G75*
G02*
X135452000Y-101637000I250000J0D01*
G01*
X135952000Y-101637000D01*
G75*
G02*
X136202000Y-101887000I0J-250000D01*
G01*
X136202000Y-102837000D01*
G75*
G02*
X135952000Y-103087000I-250000J0D01*
G01*
X135452000Y-103087000D01*
G75*
G02*
X135202000Y-102837000I0J250000D01*
G01*
G37*
%TD.AperFunction*%
%TO.P,C17,2*%
%TO.N,Net-(C17-Pad2)*%
%TA.AperFunction,SMDPad,CuDef*%
G36*
G01*
X137102000Y-102837000D02*
X137102000Y-101887000D01*
G75*
G02*
X137352000Y-101637000I250000J0D01*
G01*
X137852000Y-101637000D01*
G75*
G02*
X138102000Y-101887000I0J-250000D01*
G01*
X138102000Y-102837000D01*
G75*
G02*
X137852000Y-103087000I-250000J0D01*
G01*
X137352000Y-103087000D01*
G75*
G02*
X137102000Y-102837000I0J250000D01*
G01*
G37*
%TD.AperFunction*%
%TD*%
D31*
%TO.P,R7,1*%
%TO.N,Net-(C5-Pad1)*%
X134366000Y-66294000D03*
D32*
%TO.P,R7,2*%
%TO.N,12V_OUT*%
X129286000Y-66294000D03*
%TD*%
%TO.P,R9,2*%
%TO.N,Net-(C5-Pad1)*%
X134493000Y-69977000D03*
D31*
%TO.P,R9,1*%
%TO.N,GND*%
X139573000Y-69977000D03*
%TD*%
D32*
%TO.P,R10,2*%
%TO.N,GND*%
X156210000Y-91059000D03*
D31*
%TO.P,R10,1*%
%TO.N,RAMP_SIGNAL*%
X156210000Y-96139000D03*
%TD*%
%TO.P,R11,1*%
%TO.N,5V_OUT*%
X153797000Y-101219000D03*
D32*
%TO.P,R11,2*%
%TO.N,RAMP_SIGNAL*%
X153797000Y-96139000D03*
%TD*%
%TO.P,R16,2*%
%TO.N,Net-(G1-Pad11)*%
%TA.AperFunction,SMDPad,CuDef*%
G36*
G01*
X132911001Y-86341000D02*
X132010999Y-86341000D01*
G75*
G02*
X131761000Y-86091001I0J249999D01*
G01*
X131761000Y-85565999D01*
G75*
G02*
X132010999Y-85316000I249999J0D01*
G01*
X132911001Y-85316000D01*
G75*
G02*
X133161000Y-85565999I0J-249999D01*
G01*
X133161000Y-86091001D01*
G75*
G02*
X132911001Y-86341000I-249999J0D01*
G01*
G37*
%TD.AperFunction*%
%TO.P,R16,1*%
%TO.N,5V_OUT*%
%TA.AperFunction,SMDPad,CuDef*%
G36*
G01*
X132911001Y-88166000D02*
X132010999Y-88166000D01*
G75*
G02*
X131761000Y-87916001I0J249999D01*
G01*
X131761000Y-87390999D01*
G75*
G02*
X132010999Y-87141000I249999J0D01*
G01*
X132911001Y-87141000D01*
G75*
G02*
X133161000Y-87390999I0J-249999D01*
G01*
X133161000Y-87916001D01*
G75*
G02*
X132911001Y-88166000I-249999J0D01*
G01*
G37*
%TD.AperFunction*%
%TD*%
%TO.P,R17,2*%
%TO.N,Net-(C4-Pad1)*%
%TA.AperFunction,SMDPad,CuDef*%
G36*
G01*
X154362999Y-111271000D02*
X155263001Y-111271000D01*
G75*
G02*
X155513000Y-111520999I0J-249999D01*
G01*
X155513000Y-112046001D01*
G75*
G02*
X155263001Y-112296000I-249999J0D01*
G01*
X154362999Y-112296000D01*
G75*
G02*
X154113000Y-112046001I0J249999D01*
G01*
X154113000Y-111520999D01*
G75*
G02*
X154362999Y-111271000I249999J0D01*
G01*
G37*
%TD.AperFunction*%
%TO.P,R17,1*%
%TO.N,5V_OUT*%
%TA.AperFunction,SMDPad,CuDef*%
G36*
G01*
X154362999Y-109446000D02*
X155263001Y-109446000D01*
G75*
G02*
X155513000Y-109695999I0J-249999D01*
G01*
X155513000Y-110221001D01*
G75*
G02*
X155263001Y-110471000I-249999J0D01*
G01*
X154362999Y-110471000D01*
G75*
G02*
X154113000Y-110221001I0J249999D01*
G01*
X154113000Y-109695999D01*
G75*
G02*
X154362999Y-109446000I249999J0D01*
G01*
G37*
%TD.AperFunction*%
%TD*%
%TO.P,R19,1*%
%TO.N,Net-(R19-Pad1)*%
%TA.AperFunction,SMDPad,CuDef*%
G36*
G01*
X151072001Y-111026000D02*
X150171999Y-111026000D01*
G75*
G02*
X149922000Y-110776001I0J249999D01*
G01*
X149922000Y-110250999D01*
G75*
G02*
X150171999Y-110001000I249999J0D01*
G01*
X151072001Y-110001000D01*
G75*
G02*
X151322000Y-110250999I0J-249999D01*
G01*
X151322000Y-110776001D01*
G75*
G02*
X151072001Y-111026000I-249999J0D01*
G01*
G37*
%TD.AperFunction*%
%TO.P,R19,2*%
%TO.N,Net-(C14-Pad1)*%
%TA.AperFunction,SMDPad,CuDef*%
G36*
G01*
X151072001Y-109201000D02*
X150171999Y-109201000D01*
G75*
G02*
X149922000Y-108951001I0J249999D01*
G01*
X149922000Y-108425999D01*
G75*
G02*
X150171999Y-108176000I249999J0D01*
G01*
X151072001Y-108176000D01*
G75*
G02*
X151322000Y-108425999I0J-249999D01*
G01*
X151322000Y-108951001D01*
G75*
G02*
X151072001Y-109201000I-249999J0D01*
G01*
G37*
%TD.AperFunction*%
%TD*%
%TO.P,R20,2*%
%TO.N,5V_OUT*%
%TA.AperFunction,SMDPad,CuDef*%
G36*
G01*
X157422001Y-106153000D02*
X156521999Y-106153000D01*
G75*
G02*
X156272000Y-105903001I0J249999D01*
G01*
X156272000Y-105377999D01*
G75*
G02*
X156521999Y-105128000I249999J0D01*
G01*
X157422001Y-105128000D01*
G75*
G02*
X157672000Y-105377999I0J-249999D01*
G01*
X157672000Y-105903001D01*
G75*
G02*
X157422001Y-106153000I-249999J0D01*
G01*
G37*
%TD.AperFunction*%
%TO.P,R20,1*%
%TO.N,Net-(C14-Pad1)*%
%TA.AperFunction,SMDPad,CuDef*%
G36*
G01*
X157422001Y-107978000D02*
X156521999Y-107978000D01*
G75*
G02*
X156272000Y-107728001I0J249999D01*
G01*
X156272000Y-107202999D01*
G75*
G02*
X156521999Y-106953000I249999J0D01*
G01*
X157422001Y-106953000D01*
G75*
G02*
X157672000Y-107202999I0J-249999D01*
G01*
X157672000Y-107728001D01*
G75*
G02*
X157422001Y-107978000I-249999J0D01*
G01*
G37*
%TD.AperFunction*%
%TD*%
%TO.P,R21,2*%
%TO.N,Net-(C15-Pad2)*%
%TA.AperFunction,SMDPad,CuDef*%
G36*
G01*
X155263001Y-106153000D02*
X154362999Y-106153000D01*
G75*
G02*
X154113000Y-105903001I0J249999D01*
G01*
X154113000Y-105377999D01*
G75*
G02*
X154362999Y-105128000I249999J0D01*
G01*
X155263001Y-105128000D01*
G75*
G02*
X155513000Y-105377999I0J-249999D01*
G01*
X155513000Y-105903001D01*
G75*
G02*
X155263001Y-106153000I-249999J0D01*
G01*
G37*
%TD.AperFunction*%
%TO.P,R21,1*%
%TO.N,Net-(C14-Pad1)*%
%TA.AperFunction,SMDPad,CuDef*%
G36*
G01*
X155263001Y-107978000D02*
X154362999Y-107978000D01*
G75*
G02*
X154113000Y-107728001I0J249999D01*
G01*
X154113000Y-107202999D01*
G75*
G02*
X154362999Y-106953000I249999J0D01*
G01*
X155263001Y-106953000D01*
G75*
G02*
X155513000Y-107202999I0J-249999D01*
G01*
X155513000Y-107728001D01*
G75*
G02*
X155263001Y-107978000I-249999J0D01*
G01*
G37*
%TD.AperFunction*%
%TD*%
%TO.P,R22,1*%
%TO.N,5V_OUT*%
%TA.AperFunction,SMDPad,CuDef*%
G36*
G01*
X144371000Y-104336001D02*
X144371000Y-103435999D01*
G75*
G02*
X144620999Y-103186000I249999J0D01*
G01*
X145146001Y-103186000D01*
G75*
G02*
X145396000Y-103435999I0J-249999D01*
G01*
X145396000Y-104336001D01*
G75*
G02*
X145146001Y-104586000I-249999J0D01*
G01*
X144620999Y-104586000D01*
G75*
G02*
X144371000Y-104336001I0J249999D01*
G01*
G37*
%TD.AperFunction*%
%TO.P,R22,2*%
%TO.N,Net-(R22-Pad2)*%
%TA.AperFunction,SMDPad,CuDef*%
G36*
G01*
X146196000Y-104336001D02*
X146196000Y-103435999D01*
G75*
G02*
X146445999Y-103186000I249999J0D01*
G01*
X146971001Y-103186000D01*
G75*
G02*
X147221000Y-103435999I0J-249999D01*
G01*
X147221000Y-104336001D01*
G75*
G02*
X146971001Y-104586000I-249999J0D01*
G01*
X146445999Y-104586000D01*
G75*
G02*
X146196000Y-104336001I0J249999D01*
G01*
G37*
%TD.AperFunction*%
%TD*%
%TO.P,R23,2*%
%TO.N,Net-(R22-Pad2)*%
%TA.AperFunction,SMDPad,CuDef*%
G36*
G01*
X148825000Y-102292999D02*
X148825000Y-103193001D01*
G75*
G02*
X148575001Y-103443000I-249999J0D01*
G01*
X148049999Y-103443000D01*
G75*
G02*
X147800000Y-103193001I0J249999D01*
G01*
X147800000Y-102292999D01*
G75*
G02*
X148049999Y-102043000I249999J0D01*
G01*
X148575001Y-102043000D01*
G75*
G02*
X148825000Y-102292999I0J-249999D01*
G01*
G37*
%TD.AperFunction*%
%TO.P,R23,1*%
%TO.N,Net-(C14-Pad2)*%
%TA.AperFunction,SMDPad,CuDef*%
G36*
G01*
X150650000Y-102292999D02*
X150650000Y-103193001D01*
G75*
G02*
X150400001Y-103443000I-249999J0D01*
G01*
X149874999Y-103443000D01*
G75*
G02*
X149625000Y-103193001I0J249999D01*
G01*
X149625000Y-102292999D01*
G75*
G02*
X149874999Y-102043000I249999J0D01*
G01*
X150400001Y-102043000D01*
G75*
G02*
X150650000Y-102292999I0J-249999D01*
G01*
G37*
%TD.AperFunction*%
%TD*%
%TO.P,R24,1*%
%TO.N,Net-(C16-Pad1)*%
%TA.AperFunction,SMDPad,CuDef*%
G36*
G01*
X147800000Y-100907001D02*
X147800000Y-100006999D01*
G75*
G02*
X148049999Y-99757000I249999J0D01*
G01*
X148575001Y-99757000D01*
G75*
G02*
X148825000Y-100006999I0J-249999D01*
G01*
X148825000Y-100907001D01*
G75*
G02*
X148575001Y-101157000I-249999J0D01*
G01*
X148049999Y-101157000D01*
G75*
G02*
X147800000Y-100907001I0J249999D01*
G01*
G37*
%TD.AperFunction*%
%TO.P,R24,2*%
%TO.N,Net-(C14-Pad2)*%
%TA.AperFunction,SMDPad,CuDef*%
G36*
G01*
X149625000Y-100907001D02*
X149625000Y-100006999D01*
G75*
G02*
X149874999Y-99757000I249999J0D01*
G01*
X150400001Y-99757000D01*
G75*
G02*
X150650000Y-100006999I0J-249999D01*
G01*
X150650000Y-100907001D01*
G75*
G02*
X150400001Y-101157000I-249999J0D01*
G01*
X149874999Y-101157000D01*
G75*
G02*
X149625000Y-100907001I0J249999D01*
G01*
G37*
%TD.AperFunction*%
%TD*%
%TO.P,R25,1*%
%TO.N,5V_OUT*%
%TA.AperFunction,SMDPad,CuDef*%
G36*
G01*
X140180000Y-104336001D02*
X140180000Y-103435999D01*
G75*
G02*
X140429999Y-103186000I249999J0D01*
G01*
X140955001Y-103186000D01*
G75*
G02*
X141205000Y-103435999I0J-249999D01*
G01*
X141205000Y-104336001D01*
G75*
G02*
X140955001Y-104586000I-249999J0D01*
G01*
X140429999Y-104586000D01*
G75*
G02*
X140180000Y-104336001I0J249999D01*
G01*
G37*
%TD.AperFunction*%
%TO.P,R25,2*%
%TO.N,Net-(C16-Pad1)*%
%TA.AperFunction,SMDPad,CuDef*%
G36*
G01*
X142005000Y-104336001D02*
X142005000Y-103435999D01*
G75*
G02*
X142254999Y-103186000I249999J0D01*
G01*
X142780001Y-103186000D01*
G75*
G02*
X143030000Y-103435999I0J-249999D01*
G01*
X143030000Y-104336001D01*
G75*
G02*
X142780001Y-104586000I-249999J0D01*
G01*
X142254999Y-104586000D01*
G75*
G02*
X142005000Y-104336001I0J249999D01*
G01*
G37*
%TD.AperFunction*%
%TD*%
%TO.P,R26,2*%
%TO.N,Net-(C16-Pad1)*%
%TA.AperFunction,SMDPad,CuDef*%
G36*
G01*
X142005000Y-102050001D02*
X142005000Y-101149999D01*
G75*
G02*
X142254999Y-100900000I249999J0D01*
G01*
X142780001Y-100900000D01*
G75*
G02*
X143030000Y-101149999I0J-249999D01*
G01*
X143030000Y-102050001D01*
G75*
G02*
X142780001Y-102300000I-249999J0D01*
G01*
X142254999Y-102300000D01*
G75*
G02*
X142005000Y-102050001I0J249999D01*
G01*
G37*
%TD.AperFunction*%
%TO.P,R26,1*%
%TO.N,Net-(C17-Pad2)*%
%TA.AperFunction,SMDPad,CuDef*%
G36*
G01*
X140180000Y-102050001D02*
X140180000Y-101149999D01*
G75*
G02*
X140429999Y-100900000I249999J0D01*
G01*
X140955001Y-100900000D01*
G75*
G02*
X141205000Y-101149999I0J-249999D01*
G01*
X141205000Y-102050001D01*
G75*
G02*
X140955001Y-102300000I-249999J0D01*
G01*
X140429999Y-102300000D01*
G75*
G02*
X140180000Y-102050001I0J249999D01*
G01*
G37*
%TD.AperFunction*%
%TD*%
%TO.P,R27,2*%
%TO.N,Net-(R27-Pad2)*%
%TA.AperFunction,SMDPad,CuDef*%
G36*
G01*
X136290000Y-106876001D02*
X136290000Y-105975999D01*
G75*
G02*
X136539999Y-105726000I249999J0D01*
G01*
X137065001Y-105726000D01*
G75*
G02*
X137315000Y-105975999I0J-249999D01*
G01*
X137315000Y-106876001D01*
G75*
G02*
X137065001Y-107126000I-249999J0D01*
G01*
X136539999Y-107126000D01*
G75*
G02*
X136290000Y-106876001I0J249999D01*
G01*
G37*
%TD.AperFunction*%
%TO.P,R27,1*%
%TO.N,5V_OUT*%
%TA.AperFunction,SMDPad,CuDef*%
G36*
G01*
X134465000Y-106876001D02*
X134465000Y-105975999D01*
G75*
G02*
X134714999Y-105726000I249999J0D01*
G01*
X135240001Y-105726000D01*
G75*
G02*
X135490000Y-105975999I0J-249999D01*
G01*
X135490000Y-106876001D01*
G75*
G02*
X135240001Y-107126000I-249999J0D01*
G01*
X134714999Y-107126000D01*
G75*
G02*
X134465000Y-106876001I0J249999D01*
G01*
G37*
%TD.AperFunction*%
%TD*%
%TO.P,R28,1*%
%TO.N,Net-(C16-Pad2)*%
%TA.AperFunction,SMDPad,CuDef*%
G36*
G01*
X134465000Y-109797001D02*
X134465000Y-108896999D01*
G75*
G02*
X134714999Y-108647000I249999J0D01*
G01*
X135240001Y-108647000D01*
G75*
G02*
X135490000Y-108896999I0J-249999D01*
G01*
X135490000Y-109797001D01*
G75*
G02*
X135240001Y-110047000I-249999J0D01*
G01*
X134714999Y-110047000D01*
G75*
G02*
X134465000Y-109797001I0J249999D01*
G01*
G37*
%TD.AperFunction*%
%TO.P,R28,2*%
%TO.N,Net-(R27-Pad2)*%
%TA.AperFunction,SMDPad,CuDef*%
G36*
G01*
X136290000Y-109797001D02*
X136290000Y-108896999D01*
G75*
G02*
X136539999Y-108647000I249999J0D01*
G01*
X137065001Y-108647000D01*
G75*
G02*
X137315000Y-108896999I0J-249999D01*
G01*
X137315000Y-109797001D01*
G75*
G02*
X137065001Y-110047000I-249999J0D01*
G01*
X136539999Y-110047000D01*
G75*
G02*
X136290000Y-109797001I0J249999D01*
G01*
G37*
%TD.AperFunction*%
%TD*%
D13*
%TO.P,R29,1*%
%TO.N,SIGNAL_OUT*%
X128016000Y-97155000D03*
D33*
%TO.P,R29,2*%
%TO.N,Net-(C16-Pad2)*%
X128016000Y-104775000D03*
%TD*%
D20*
%TO.P,RV1,3*%
%TO.N,Net-(R19-Pad1)*%
X152868000Y-118872000D03*
%TO.P,RV1,2*%
X150368000Y-118872000D03*
D21*
%TO.P,RV1,1*%
%TO.N,Net-(R18-Pad1)*%
X147868000Y-118872000D03*
%TD*%
D10*
%TO.P,J1,1*%
%TO.N,GND*%
X123698000Y-96012000D03*
D11*
%TO.P,J1,2*%
%TO.N,SIGNAL_OUT*%
X123698000Y-93472000D03*
%TO.P,J1,3*%
%TO.N,SYNC_OUT*%
X123698000Y-90932000D03*
%TD*%
D13*
%TO.P,R18,1*%
%TO.N,Net-(R18-Pad1)*%
X143002000Y-118110000D03*
D33*
%TO.P,R18,2*%
%TO.N,5V_OUT*%
X135382000Y-118110000D03*
%TD*%
D34*
%TO.N,12V_OUT*%
X143002000Y-110490000D03*
X126746000Y-60452000D03*
X127254000Y-66294000D03*
%TO.N,Net-(BT1-Pad2)*%
X146431000Y-58674000D03*
X150368000Y-58674000D03*
%TO.N,GND*%
X149352000Y-64135000D03*
X157861000Y-89789000D03*
X157226000Y-98171000D03*
X166624000Y-94361000D03*
X158242000Y-76200000D03*
X153416000Y-64135000D03*
X150241000Y-90170000D03*
X161798000Y-106172000D03*
X165735000Y-110617000D03*
X165735000Y-113157000D03*
X137541000Y-112014000D03*
X162687000Y-104013000D03*
X165989000Y-104013000D03*
D35*
X127762000Y-115316000D03*
D36*
X174498000Y-89408000D03*
X173482000Y-120142000D03*
D34*
%TO.N,5V_OUT*%
X156972000Y-64135000D03*
X165862000Y-97282000D03*
X165862000Y-98298000D03*
X156972000Y-67056000D03*
X141859000Y-86868000D03*
X162941000Y-99060000D03*
X164592000Y-98933000D03*
X158750000Y-105029000D03*
X155829000Y-103124000D03*
X157226000Y-109220000D03*
X138938000Y-104140000D03*
X145542000Y-101727000D03*
X139319000Y-100584000D03*
X133731000Y-106172000D03*
D36*
X174498000Y-86106000D03*
X173482000Y-116840000D03*
D34*
%TO.N,3.6V_OUT*%
X161417000Y-97028000D03*
X158750000Y-71374000D03*
%TO.N,Net-(C17-Pad2)*%
X136906000Y-103923000D03*
%TO.N,Net-(R22-Pad2)*%
X145923000Y-105537000D03*
X147193000Y-107950000D03*
%TO.N,Net-(C15-Pad2)*%
X150876000Y-106045000D03*
X148336000Y-108585000D03*
%TO.N,Net-(R18-Pad1)*%
X146431000Y-116967000D03*
X147447000Y-113157000D03*
%TO.N,Net-(R19-Pad1)*%
X149479000Y-113919000D03*
X152527000Y-109982000D03*
%TO.N,Net-(C16-Pad1)*%
X131953000Y-109093000D03*
X142494000Y-105537000D03*
%TD*%
D37*
%TO.N,12V_OUT*%
X128016000Y-60094500D02*
X128373500Y-60452000D01*
X128373500Y-56491500D02*
X128016000Y-56134000D01*
X128373500Y-60452000D02*
X128373500Y-56491500D01*
X143129000Y-110617000D02*
X143002000Y-110490000D01*
X144957800Y-110617000D02*
X143129000Y-110617000D01*
X126746000Y-60452000D02*
X128373500Y-60452000D01*
X127254000Y-66294000D02*
X129286000Y-66294000D01*
X146370000Y-90932000D02*
X143510000Y-90932000D01*
%TO.N,Net-(BT1-Pad2)*%
X148021000Y-60264000D02*
X146431000Y-58674000D01*
X148082000Y-60264000D02*
X148021000Y-60264000D01*
X152386000Y-60692000D02*
X150368000Y-58674000D01*
X152386000Y-61701000D02*
X152386000Y-60692000D01*
X150368000Y-58674000D02*
X150368000Y-58674000D01*
%TO.N,GND*%
X148082000Y-62164000D02*
X148397000Y-62164000D01*
X148082000Y-62865000D02*
X149352000Y-64135000D01*
X148082000Y-62164000D02*
X148082000Y-62865000D01*
X159258000Y-91186000D02*
X157861000Y-89789000D01*
X159258000Y-91506000D02*
X159258000Y-91186000D01*
X158552000Y-96845000D02*
X157226000Y-98171000D01*
X159633000Y-96845000D02*
X158552000Y-96845000D01*
X165440000Y-95545000D02*
X166624000Y-94361000D01*
X163963000Y-95545000D02*
X165440000Y-95545000D01*
X154686000Y-55901000D02*
X154686000Y-61701000D01*
X156972000Y-74930000D02*
X158242000Y-76200000D01*
X156972000Y-74572500D02*
X156972000Y-74930000D01*
X149479000Y-90932000D02*
X150241000Y-90170000D01*
X148270000Y-90932000D02*
X149479000Y-90932000D01*
X163068000Y-107442000D02*
X161798000Y-106172000D01*
X163068000Y-109223000D02*
X163068000Y-107442000D01*
X166881000Y-111763000D02*
X165735000Y-110617000D01*
X168148000Y-111763000D02*
X166881000Y-111763000D01*
X166881000Y-114303000D02*
X165735000Y-113157000D01*
X168148000Y-114303000D02*
X166881000Y-114303000D01*
X138938000Y-110617000D02*
X137541000Y-112014000D01*
X140030200Y-110617000D02*
X138938000Y-110617000D01*
X162179000Y-103505000D02*
X162687000Y-104013000D01*
X162179000Y-102296000D02*
X162179000Y-103505000D01*
X165481000Y-103505000D02*
X165989000Y-104013000D01*
X165481000Y-102362000D02*
X165481000Y-103505000D01*
X154686000Y-62865000D02*
X153416000Y-64135000D01*
X154686000Y-61701000D02*
X154686000Y-62865000D01*
%TO.N,5V_OUT*%
X163963000Y-97495000D02*
X164231000Y-97495000D01*
X156986000Y-64121000D02*
X156972000Y-64135000D01*
D38*
X156986000Y-61701000D02*
X156986000Y-64121000D01*
D37*
X165425000Y-96845000D02*
X165862000Y-97282000D01*
X163963000Y-96845000D02*
X165425000Y-96845000D01*
X165059000Y-97495000D02*
X165862000Y-98298000D01*
X163963000Y-97495000D02*
X165059000Y-97495000D01*
X156972000Y-68810500D02*
X156972000Y-67056000D01*
X132461000Y-87653500D02*
X132461000Y-87503000D01*
X132461000Y-87653500D02*
X134088500Y-87653500D01*
X141711799Y-87015201D02*
X141859000Y-86868000D01*
X134726799Y-87015201D02*
X141711799Y-87015201D01*
X134088500Y-87653500D02*
X134726799Y-87015201D01*
X162179000Y-99822000D02*
X162941000Y-99060000D01*
X162179000Y-100396000D02*
X162179000Y-99822000D01*
X165481000Y-99822000D02*
X164592000Y-98933000D01*
X165481000Y-100462000D02*
X165481000Y-99822000D01*
X158138500Y-105640500D02*
X158750000Y-105029000D01*
X156972000Y-105640500D02*
X158138500Y-105640500D01*
X155255000Y-103698000D02*
X155829000Y-103124000D01*
X152654000Y-103698000D02*
X155255000Y-103698000D01*
X156487500Y-109958500D02*
X157226000Y-109220000D01*
X154813000Y-109958500D02*
X156487500Y-109958500D01*
X139192000Y-103886000D02*
X138938000Y-104140000D01*
X140692500Y-103886000D02*
X139192000Y-103886000D01*
X144883500Y-102385500D02*
X145542000Y-101727000D01*
X144883500Y-103886000D02*
X144883500Y-102385500D01*
X135702000Y-102362000D02*
X137480000Y-100584000D01*
X133985000Y-106426000D02*
X133731000Y-106172000D01*
X134977500Y-106426000D02*
X133985000Y-106426000D01*
X137480000Y-100584000D02*
X139319000Y-100584000D01*
%TO.N,Net-(C5-Pad1)*%
X134493000Y-66421000D02*
X134366000Y-66294000D01*
X140930000Y-75946000D02*
X138898000Y-73914000D01*
X138898000Y-73914000D02*
X136398000Y-73914000D01*
X136398000Y-73914000D02*
X138430000Y-75946000D01*
X134493000Y-72009000D02*
X136398000Y-73914000D01*
X143002000Y-66294000D02*
X134366000Y-66294000D01*
X134366000Y-69850000D02*
X134493000Y-69977000D01*
X134366000Y-66294000D02*
X134366000Y-69850000D01*
X134493000Y-72009000D02*
X134493000Y-69977000D01*
%TO.N,Net-(C6-Pad1)*%
X159633000Y-93781000D02*
X159258000Y-93406000D01*
X159633000Y-95545000D02*
X159633000Y-93781000D01*
D38*
%TO.N,Net-(C7-Pad2)*%
X143510000Y-96012000D02*
X148122000Y-96012000D01*
D37*
%TO.N,RAMP_SIGNAL*%
X150805000Y-96195000D02*
X150622000Y-96012000D01*
X156266000Y-96195000D02*
X156210000Y-96139000D01*
X159633000Y-96195000D02*
X156266000Y-96195000D01*
D38*
X156210000Y-96139000D02*
X153797000Y-96139000D01*
D37*
X150749000Y-96139000D02*
X150622000Y-96012000D01*
D38*
X153797000Y-96139000D02*
X150749000Y-96139000D01*
D37*
%TO.N,Net-(C9-Pad2)*%
X147320000Y-88392000D02*
X147574000Y-88138000D01*
X143510000Y-88392000D02*
X147320000Y-88392000D01*
%TO.N,Net-(C9-Pad1)*%
X147188000Y-85852000D02*
X147574000Y-86238000D01*
X143510000Y-85852000D02*
X147188000Y-85852000D01*
%TO.N,Net-(C13-Pad1)*%
X132715000Y-80137000D02*
X135890000Y-83312000D01*
X131572000Y-80137000D02*
X132715000Y-80137000D01*
%TO.N,Net-(D1-Pad2)*%
X130198500Y-60452000D02*
X134874000Y-60452000D01*
%TO.N,Net-(G1-Pad11)*%
X132484500Y-85852000D02*
X132461000Y-85828500D01*
X135890000Y-85852000D02*
X132484500Y-85852000D01*
X129182500Y-85828500D02*
X129159000Y-85852000D01*
X132461000Y-85828500D02*
X129182500Y-85828500D01*
%TO.N,Net-(G1-Pad7)*%
X146962500Y-83312000D02*
X147320000Y-82954500D01*
X143510000Y-83312000D02*
X146962500Y-83312000D01*
%TO.N,3.6V_OUT*%
X160950000Y-97495000D02*
X161417000Y-97028000D01*
X159633000Y-97495000D02*
X160950000Y-97495000D01*
X156972000Y-70635500D02*
X156972000Y-72747500D01*
X158011500Y-70635500D02*
X158750000Y-71374000D01*
X156972000Y-70635500D02*
X158011500Y-70635500D01*
%TO.N,Net-(R14-Pad2)*%
X147320000Y-75986000D02*
X147360000Y-75946000D01*
X147320000Y-81129500D02*
X147320000Y-75986000D01*
%TO.N,Net-(U1-Pad7)*%
X163963000Y-96195000D02*
X166299000Y-96195000D01*
X174935000Y-96195000D02*
X175006000Y-96266000D01*
D39*
X166299000Y-96195000D02*
X174935000Y-96195000D01*
D40*
%TO.N,SYNC_OUT*%
X123698000Y-90932000D02*
X125349000Y-90932000D01*
X126619000Y-89662000D02*
X126619000Y-85852000D01*
X125349000Y-90932000D02*
X126619000Y-89662000D01*
D37*
%TO.N,Net-(C17-Pad2)*%
X138364000Y-101600000D02*
X137602000Y-102362000D01*
X140692500Y-101600000D02*
X138364000Y-101600000D01*
X137602000Y-103227000D02*
X136906000Y-103923000D01*
X137602000Y-102362000D02*
X137602000Y-103227000D01*
X141270800Y-109347000D02*
X141732000Y-108885800D01*
X140030200Y-109347000D02*
X141270800Y-109347000D01*
X139930503Y-104865001D02*
X137848001Y-104865001D01*
X141732000Y-106666498D02*
X139930503Y-104865001D01*
X137848001Y-104865001D02*
X136906000Y-103923000D01*
X141732000Y-108885800D02*
X141732000Y-106666498D01*
%TO.N,Net-(R27-Pad2)*%
X138453500Y-108077000D02*
X136802500Y-106426000D01*
X140030200Y-108077000D02*
X138453500Y-108077000D01*
X138072500Y-108077000D02*
X140030200Y-108077000D01*
X136802500Y-109347000D02*
X138072500Y-108077000D01*
%TO.N,Net-(C16-Pad2)*%
X134977500Y-108627500D02*
X134977500Y-109347000D01*
X132522000Y-106172000D02*
X134977500Y-108627500D01*
X131471990Y-105121990D02*
X128558010Y-105121990D01*
X132522000Y-106172000D02*
X131471990Y-105121990D01*
X132522000Y-106172000D02*
X133792000Y-104902000D01*
X133792000Y-104902000D02*
X136906000Y-104902000D01*
X138811000Y-106807000D02*
X136906000Y-104902000D01*
X140030200Y-106807000D02*
X138811000Y-106807000D01*
%TO.N,Net-(C14-Pad2)*%
X147132000Y-106807000D02*
X149098000Y-104841000D01*
X144957800Y-106807000D02*
X147132000Y-106807000D01*
X150137500Y-103801500D02*
X149098000Y-104841000D01*
X150137500Y-102743000D02*
X150137500Y-103801500D01*
X150137500Y-102743000D02*
X150137500Y-100457000D01*
%TO.N,Net-(R22-Pad2)*%
X147169500Y-103886000D02*
X148312500Y-102743000D01*
X146708500Y-103886000D02*
X147169500Y-103886000D01*
X147066000Y-108077000D02*
X147193000Y-107950000D01*
X144957800Y-108077000D02*
X147066000Y-108077000D01*
X146708500Y-104751500D02*
X145923000Y-105537000D01*
X146708500Y-103886000D02*
X146708500Y-104751500D01*
%TO.N,Net-(C15-Pad2)*%
X152696500Y-105640500D02*
X152654000Y-105598000D01*
X154813000Y-105640500D02*
X152696500Y-105640500D01*
X151323000Y-105598000D02*
X150876000Y-106045000D01*
X152654000Y-105598000D02*
X151323000Y-105598000D01*
X147574000Y-109347000D02*
X148336000Y-108585000D01*
X144957800Y-109347000D02*
X147574000Y-109347000D01*
%TO.N,Net-(C4-Pad1)*%
X154709500Y-111887000D02*
X154813000Y-111783500D01*
D41*
X144957800Y-111887000D02*
X154709500Y-111887000D01*
D37*
X154836500Y-111760000D02*
X154813000Y-111783500D01*
D41*
X157546000Y-111760000D02*
X154836500Y-111760000D01*
D37*
%TO.N,Net-(R18-Pad1)*%
X147447000Y-113157000D02*
X144957800Y-113157000D01*
X147574000Y-113157000D02*
X147447000Y-113157000D01*
X143002000Y-118110000D02*
X145288000Y-118110000D01*
X145288000Y-118110000D02*
X146431000Y-116967000D01*
%TO.N,Net-(R19-Pad1)*%
X144957800Y-114427000D02*
X145923000Y-114427000D01*
X150201000Y-116205000D02*
X152868000Y-118872000D01*
X145923000Y-114427000D02*
X147701000Y-116205000D01*
X147701000Y-116205000D02*
X150201000Y-116205000D01*
X147701000Y-116205000D02*
X150368000Y-118872000D01*
X150201000Y-114641000D02*
X149479000Y-113919000D01*
X150201000Y-116205000D02*
X150201000Y-114641000D01*
X151153500Y-109982000D02*
X150622000Y-110513500D01*
X152527000Y-109982000D02*
X151153500Y-109982000D01*
D39*
%TO.N,Net-(U6-Pad2)*%
X163068000Y-120142000D02*
X163068000Y-114303000D01*
D37*
%TO.N,IF_SIGNAL*%
X163065000Y-111760000D02*
X163068000Y-111763000D01*
D41*
X159446000Y-111760000D02*
X163065000Y-111760000D01*
D37*
%TO.N,Net-(U11-Pad2)*%
X168151000Y-109220000D02*
X168148000Y-109223000D01*
D39*
X175006000Y-109220000D02*
X168151000Y-109220000D01*
D37*
%TO.N,Net-(C14-Pad1)*%
X154813000Y-107465500D02*
X156972000Y-107465500D01*
X150622000Y-108265000D02*
X149098000Y-106741000D01*
X150622000Y-108688500D02*
X150622000Y-108265000D01*
X151845000Y-107465500D02*
X150622000Y-108688500D01*
X154813000Y-107465500D02*
X151845000Y-107465500D01*
%TO.N,Net-(C16-Pad1)*%
X143660500Y-100457000D02*
X142517500Y-101600000D01*
X148312500Y-100457000D02*
X143660500Y-100457000D01*
X142517500Y-101600000D02*
X142517500Y-103886000D01*
X130622000Y-107762000D02*
X131953000Y-109093000D01*
X130622000Y-106172000D02*
X130622000Y-107762000D01*
X142494000Y-103909500D02*
X142517500Y-103886000D01*
X142494000Y-105537000D02*
X142494000Y-103909500D01*
D40*
%TO.N,SIGNAL_OUT*%
X128016000Y-97155000D02*
X128016000Y-95123000D01*
X126365000Y-93472000D02*
X128016000Y-95123000D01*
X123698000Y-93472000D02*
X126365000Y-93472000D01*
%TD*%
M02*
