%TF.GenerationSoftware,KiCad,Pcbnew,(5.1.8)-1*%
%TF.CreationDate,2021-04-12T08:25:30-07:00*%
%TF.ProjectId,coffee-spring21,636f6666-6565-42d7-9370-72696e673231,rev?*%
%TF.SameCoordinates,Original*%
%TF.FileFunction,Soldermask,Bot*%
%TF.FilePolarity,Negative*%
%FSLAX46Y46*%
G04 Gerber Fmt 4.6, Leading zero omitted, Abs format (unit mm)*
G04 Created by KiCad (PCBNEW (5.1.8)-1) date 2021-04-12 08:25:30*
%MOMM*%
%LPD*%
G01*
G04 APERTURE LIST*
%ADD10R,1.700000X1.700000*%
%ADD11O,1.700000X1.700000*%
%ADD12R,1.600000X1.600000*%
%ADD13C,1.600000*%
%ADD14R,1.200000X1.200000*%
%ADD15C,1.200000*%
%ADD16R,1.800000X1.800000*%
%ADD17C,1.800000*%
%ADD18C,1.676400*%
%ADD19R,1.676400X1.676400*%
%ADD20C,1.508000*%
%ADD21R,1.508000X1.508000*%
%ADD22R,2.500000X1.600000*%
%ADD23R,1.600000X2.500000*%
%ADD24C,1.400000*%
%ADD25O,1.400000X1.400000*%
%ADD26O,1.600000X1.600000*%
G04 APERTURE END LIST*
D10*
%TO.C,BT1*%
X128016000Y-56134000D03*
D11*
X130556000Y-56134000D03*
%TD*%
%TO.C,BT2*%
X144272000Y-56134000D03*
D10*
X141732000Y-56134000D03*
%TD*%
D12*
%TO.C,C5*%
X143002000Y-66294000D03*
D13*
X145502000Y-66294000D03*
%TD*%
%TO.C,C7*%
X148122000Y-96012000D03*
D12*
X150622000Y-96012000D03*
%TD*%
D14*
%TO.C,C13*%
X131572000Y-80137000D03*
D15*
X131572000Y-82137000D03*
%TD*%
D16*
%TO.C,D1*%
X137414000Y-60452000D03*
D17*
X134874000Y-60452000D03*
%TD*%
D12*
%TO.C,C8*%
X122809000Y-61341000D03*
D13*
X122809000Y-63841000D03*
%TD*%
D18*
%TO.C,G1*%
X135890000Y-98552000D03*
X135890000Y-96012000D03*
X135890000Y-93472000D03*
X135890000Y-90932000D03*
X135890000Y-88392000D03*
X135890000Y-85852000D03*
X135890000Y-83312000D03*
X135890000Y-80772000D03*
X143510000Y-80772000D03*
X143510000Y-83312000D03*
X143510000Y-85852000D03*
X143510000Y-88392000D03*
X143510000Y-90932000D03*
X143510000Y-93472000D03*
X143510000Y-96012000D03*
D19*
X143510000Y-98552000D03*
%TD*%
D20*
%TO.C,RV2*%
X140930000Y-75946000D03*
X138430000Y-75946000D03*
D21*
X135930000Y-75946000D03*
%TD*%
%TO.C,RV3*%
X147360000Y-75946000D03*
D20*
X149860000Y-75946000D03*
X152360000Y-75946000D03*
%TD*%
D13*
%TO.C,C3*%
X165314000Y-64135000D03*
D12*
X162814000Y-64135000D03*
%TD*%
D10*
%TO.C,SW1*%
X124079000Y-85852000D03*
D11*
X126619000Y-85852000D03*
X129159000Y-85852000D03*
%TD*%
D22*
%TO.C,U5*%
X173506000Y-92066000D03*
X176006000Y-92066000D03*
X173506000Y-100466000D03*
X176006000Y-100466000D03*
%TD*%
D23*
%TO.C,U6*%
X158868000Y-121142000D03*
X158868000Y-118642000D03*
X167268000Y-121142000D03*
X167268000Y-118642000D03*
%TD*%
D22*
%TO.C,U11*%
X173506000Y-105020000D03*
X176006000Y-105020000D03*
X173506000Y-113420000D03*
X176006000Y-113420000D03*
%TD*%
D24*
%TO.C,R7*%
X134366000Y-66294000D03*
D25*
X129286000Y-66294000D03*
%TD*%
%TO.C,R9*%
X134493000Y-69977000D03*
D24*
X139573000Y-69977000D03*
%TD*%
D25*
%TO.C,R10*%
X156210000Y-91059000D03*
D24*
X156210000Y-96139000D03*
%TD*%
%TO.C,R11*%
X153797000Y-101219000D03*
D25*
X153797000Y-96139000D03*
%TD*%
D13*
%TO.C,R29*%
X128016000Y-97155000D03*
D26*
X128016000Y-104775000D03*
%TD*%
D20*
%TO.C,RV1*%
X152868000Y-118872000D03*
X150368000Y-118872000D03*
D21*
X147868000Y-118872000D03*
%TD*%
D10*
%TO.C,J1*%
X123698000Y-96012000D03*
D11*
X123698000Y-93472000D03*
X123698000Y-90932000D03*
%TD*%
D13*
%TO.C,R18*%
X143002000Y-118110000D03*
D26*
X135382000Y-118110000D03*
%TD*%
M02*
