%TF.GenerationSoftware,KiCad,Pcbnew,(5.1.8)-1*%
%TF.CreationDate,2021-04-18T10:22:12-07:00*%
%TF.ProjectId,coffee-spring21,636f6666-6565-42d7-9370-72696e673231,rev?*%
%TF.SameCoordinates,Original*%
%TF.FileFunction,Soldermask,Top*%
%TF.FilePolarity,Negative*%
%FSLAX46Y46*%
G04 Gerber Fmt 4.6, Leading zero omitted, Abs format (unit mm)*
G04 Created by KiCad (PCBNEW (5.1.8)-1) date 2021-04-18 10:22:12*
%MOMM*%
%LPD*%
G01*
G04 APERTURE LIST*
%ADD10R,1.700000X1.700000*%
%ADD11O,1.700000X1.700000*%
%ADD12R,1.600000X1.600000*%
%ADD13C,1.600000*%
%ADD14R,1.200000X1.200000*%
%ADD15C,1.200000*%
%ADD16R,1.800000X1.800000*%
%ADD17C,1.800000*%
%ADD18C,1.676400*%
%ADD19R,1.676400X1.676400*%
%ADD20C,1.508000*%
%ADD21R,1.508000X1.508000*%
%ADD22R,3.250000X2.150000*%
%ADD23R,0.950000X2.150000*%
%ADD24R,1.420000X0.470000*%
%ADD25R,1.981200X0.533400*%
%ADD26R,2.500000X1.600000*%
%ADD27R,5.600000X1.500000*%
%ADD28R,1.600000X2.500000*%
%ADD29R,1.500000X5.600000*%
%ADD30R,2.540000X1.650000*%
%ADD31C,1.400000*%
%ADD32O,1.400000X1.400000*%
%ADD33O,1.600000X1.600000*%
G04 APERTURE END LIST*
%TO.C,C12*%
G36*
G01*
X165956000Y-102862000D02*
X165006000Y-102862000D01*
G75*
G02*
X164756000Y-102612000I0J250000D01*
G01*
X164756000Y-102112000D01*
G75*
G02*
X165006000Y-101862000I250000J0D01*
G01*
X165956000Y-101862000D01*
G75*
G02*
X166206000Y-102112000I0J-250000D01*
G01*
X166206000Y-102612000D01*
G75*
G02*
X165956000Y-102862000I-250000J0D01*
G01*
G37*
G36*
G01*
X165956000Y-100962000D02*
X165006000Y-100962000D01*
G75*
G02*
X164756000Y-100712000I0J250000D01*
G01*
X164756000Y-100212000D01*
G75*
G02*
X165006000Y-99962000I250000J0D01*
G01*
X165956000Y-99962000D01*
G75*
G02*
X166206000Y-100212000I0J-250000D01*
G01*
X166206000Y-100712000D01*
G75*
G02*
X165956000Y-100962000I-250000J0D01*
G01*
G37*
%TD*%
%TO.C,R1*%
G36*
G01*
X127861000Y-60902002D02*
X127861000Y-60001998D01*
G75*
G02*
X128110998Y-59752000I249998J0D01*
G01*
X128636002Y-59752000D01*
G75*
G02*
X128886000Y-60001998I0J-249998D01*
G01*
X128886000Y-60902002D01*
G75*
G02*
X128636002Y-61152000I-249998J0D01*
G01*
X128110998Y-61152000D01*
G75*
G02*
X127861000Y-60902002I0J249998D01*
G01*
G37*
G36*
G01*
X129686000Y-60902002D02*
X129686000Y-60001998D01*
G75*
G02*
X129935998Y-59752000I249998J0D01*
G01*
X130461002Y-59752000D01*
G75*
G02*
X130711000Y-60001998I0J-249998D01*
G01*
X130711000Y-60902002D01*
G75*
G02*
X130461002Y-61152000I-249998J0D01*
G01*
X129935998Y-61152000D01*
G75*
G02*
X129686000Y-60902002I0J249998D01*
G01*
G37*
%TD*%
D10*
%TO.C,BT1*%
X128016000Y-56134000D03*
D11*
X130556000Y-56134000D03*
%TD*%
%TO.C,BT2*%
X144272000Y-56134000D03*
D10*
X141732000Y-56134000D03*
%TD*%
%TO.C,C9*%
G36*
G01*
X147099000Y-87638000D02*
X148049000Y-87638000D01*
G75*
G02*
X148299000Y-87888000I0J-250000D01*
G01*
X148299000Y-88388000D01*
G75*
G02*
X148049000Y-88638000I-250000J0D01*
G01*
X147099000Y-88638000D01*
G75*
G02*
X146849000Y-88388000I0J250000D01*
G01*
X146849000Y-87888000D01*
G75*
G02*
X147099000Y-87638000I250000J0D01*
G01*
G37*
G36*
G01*
X147099000Y-85738000D02*
X148049000Y-85738000D01*
G75*
G02*
X148299000Y-85988000I0J-250000D01*
G01*
X148299000Y-86488000D01*
G75*
G02*
X148049000Y-86738000I-250000J0D01*
G01*
X147099000Y-86738000D01*
G75*
G02*
X146849000Y-86488000I0J250000D01*
G01*
X146849000Y-85988000D01*
G75*
G02*
X147099000Y-85738000I250000J0D01*
G01*
G37*
%TD*%
D12*
%TO.C,C5*%
X143002000Y-66294000D03*
D13*
X145502000Y-66294000D03*
%TD*%
%TO.C,C7*%
X148122000Y-96012000D03*
D12*
X150622000Y-96012000D03*
%TD*%
D14*
%TO.C,C13*%
X131572000Y-80137000D03*
D15*
X131572000Y-82137000D03*
%TD*%
D16*
%TO.C,D1*%
X137414000Y-60452000D03*
D17*
X134874000Y-60452000D03*
%TD*%
D12*
%TO.C,C8*%
X122809000Y-61341000D03*
D13*
X122809000Y-63841000D03*
%TD*%
D18*
%TO.C,G1*%
X135890000Y-98552000D03*
X135890000Y-96012000D03*
X135890000Y-93472000D03*
X135890000Y-90932000D03*
X135890000Y-88392000D03*
X135890000Y-85852000D03*
X135890000Y-83312000D03*
X135890000Y-80772000D03*
X143510000Y-80772000D03*
X143510000Y-83312000D03*
X143510000Y-85852000D03*
X143510000Y-88392000D03*
X143510000Y-90932000D03*
X143510000Y-93472000D03*
X143510000Y-96012000D03*
D19*
X143510000Y-98552000D03*
%TD*%
D20*
%TO.C,RV2*%
X140930000Y-75946000D03*
X138430000Y-75946000D03*
D21*
X135930000Y-75946000D03*
%TD*%
%TO.C,RV3*%
X147360000Y-75946000D03*
D20*
X149860000Y-75946000D03*
X152360000Y-75946000D03*
%TD*%
D22*
%TO.C,VR1*%
X154686000Y-55901000D03*
D23*
X156986000Y-61701000D03*
X154686000Y-61701000D03*
X152386000Y-61701000D03*
%TD*%
%TO.C,C11*%
G36*
G01*
X162654000Y-100896000D02*
X161704000Y-100896000D01*
G75*
G02*
X161454000Y-100646000I0J250000D01*
G01*
X161454000Y-100146000D01*
G75*
G02*
X161704000Y-99896000I250000J0D01*
G01*
X162654000Y-99896000D01*
G75*
G02*
X162904000Y-100146000I0J-250000D01*
G01*
X162904000Y-100646000D01*
G75*
G02*
X162654000Y-100896000I-250000J0D01*
G01*
G37*
G36*
G01*
X162654000Y-102796000D02*
X161704000Y-102796000D01*
G75*
G02*
X161454000Y-102546000I0J250000D01*
G01*
X161454000Y-102046000D01*
G75*
G02*
X161704000Y-101796000I250000J0D01*
G01*
X162654000Y-101796000D01*
G75*
G02*
X162904000Y-102046000I0J-250000D01*
G01*
X162904000Y-102546000D01*
G75*
G02*
X162654000Y-102796000I-250000J0D01*
G01*
G37*
%TD*%
D24*
%TO.C,U1*%
X159633000Y-95545000D03*
X159633000Y-96195000D03*
X159633000Y-96845000D03*
X159633000Y-97495000D03*
X163963000Y-97495000D03*
X163963000Y-96845000D03*
X163963000Y-96195000D03*
X163963000Y-95545000D03*
%TD*%
%TO.C,C2*%
G36*
G01*
X147607000Y-59764000D02*
X148557000Y-59764000D01*
G75*
G02*
X148807000Y-60014000I0J-250000D01*
G01*
X148807000Y-60514000D01*
G75*
G02*
X148557000Y-60764000I-250000J0D01*
G01*
X147607000Y-60764000D01*
G75*
G02*
X147357000Y-60514000I0J250000D01*
G01*
X147357000Y-60014000D01*
G75*
G02*
X147607000Y-59764000I250000J0D01*
G01*
G37*
G36*
G01*
X147607000Y-61664000D02*
X148557000Y-61664000D01*
G75*
G02*
X148807000Y-61914000I0J-250000D01*
G01*
X148807000Y-62414000D01*
G75*
G02*
X148557000Y-62664000I-250000J0D01*
G01*
X147607000Y-62664000D01*
G75*
G02*
X147357000Y-62414000I0J250000D01*
G01*
X147357000Y-61914000D01*
G75*
G02*
X147607000Y-61664000I250000J0D01*
G01*
G37*
%TD*%
D13*
%TO.C,C3*%
X165314000Y-64135000D03*
D12*
X162814000Y-64135000D03*
%TD*%
%TO.C,C6*%
G36*
G01*
X159733000Y-93906000D02*
X158783000Y-93906000D01*
G75*
G02*
X158533000Y-93656000I0J250000D01*
G01*
X158533000Y-93156000D01*
G75*
G02*
X158783000Y-92906000I250000J0D01*
G01*
X159733000Y-92906000D01*
G75*
G02*
X159983000Y-93156000I0J-250000D01*
G01*
X159983000Y-93656000D01*
G75*
G02*
X159733000Y-93906000I-250000J0D01*
G01*
G37*
G36*
G01*
X159733000Y-92006000D02*
X158783000Y-92006000D01*
G75*
G02*
X158533000Y-91756000I0J250000D01*
G01*
X158533000Y-91256000D01*
G75*
G02*
X158783000Y-91006000I250000J0D01*
G01*
X159733000Y-91006000D01*
G75*
G02*
X159983000Y-91256000I0J-250000D01*
G01*
X159983000Y-91756000D01*
G75*
G02*
X159733000Y-92006000I-250000J0D01*
G01*
G37*
%TD*%
%TO.C,C10*%
G36*
G01*
X146870000Y-90457000D02*
X146870000Y-91407000D01*
G75*
G02*
X146620000Y-91657000I-250000J0D01*
G01*
X146120000Y-91657000D01*
G75*
G02*
X145870000Y-91407000I0J250000D01*
G01*
X145870000Y-90457000D01*
G75*
G02*
X146120000Y-90207000I250000J0D01*
G01*
X146620000Y-90207000D01*
G75*
G02*
X146870000Y-90457000I0J-250000D01*
G01*
G37*
G36*
G01*
X148770000Y-90457000D02*
X148770000Y-91407000D01*
G75*
G02*
X148520000Y-91657000I-250000J0D01*
G01*
X148020000Y-91657000D01*
G75*
G02*
X147770000Y-91407000I0J250000D01*
G01*
X147770000Y-90457000D01*
G75*
G02*
X148020000Y-90207000I250000J0D01*
G01*
X148520000Y-90207000D01*
G75*
G02*
X148770000Y-90457000I0J-250000D01*
G01*
G37*
%TD*%
%TO.C,R5*%
G36*
G01*
X157422002Y-69323000D02*
X156521998Y-69323000D01*
G75*
G02*
X156272000Y-69073002I0J249998D01*
G01*
X156272000Y-68547998D01*
G75*
G02*
X156521998Y-68298000I249998J0D01*
G01*
X157422002Y-68298000D01*
G75*
G02*
X157672000Y-68547998I0J-249998D01*
G01*
X157672000Y-69073002D01*
G75*
G02*
X157422002Y-69323000I-249998J0D01*
G01*
G37*
G36*
G01*
X157422002Y-71148000D02*
X156521998Y-71148000D01*
G75*
G02*
X156272000Y-70898002I0J249998D01*
G01*
X156272000Y-70372998D01*
G75*
G02*
X156521998Y-70123000I249998J0D01*
G01*
X157422002Y-70123000D01*
G75*
G02*
X157672000Y-70372998I0J-249998D01*
G01*
X157672000Y-70898002D01*
G75*
G02*
X157422002Y-71148000I-249998J0D01*
G01*
G37*
%TD*%
%TO.C,R6*%
G36*
G01*
X157422002Y-73260000D02*
X156521998Y-73260000D01*
G75*
G02*
X156272000Y-73010002I0J249998D01*
G01*
X156272000Y-72484998D01*
G75*
G02*
X156521998Y-72235000I249998J0D01*
G01*
X157422002Y-72235000D01*
G75*
G02*
X157672000Y-72484998I0J-249998D01*
G01*
X157672000Y-73010002D01*
G75*
G02*
X157422002Y-73260000I-249998J0D01*
G01*
G37*
G36*
G01*
X157422002Y-75085000D02*
X156521998Y-75085000D01*
G75*
G02*
X156272000Y-74835002I0J249998D01*
G01*
X156272000Y-74309998D01*
G75*
G02*
X156521998Y-74060000I249998J0D01*
G01*
X157422002Y-74060000D01*
G75*
G02*
X157672000Y-74309998I0J-249998D01*
G01*
X157672000Y-74835002D01*
G75*
G02*
X157422002Y-75085000I-249998J0D01*
G01*
G37*
%TD*%
%TO.C,R14*%
G36*
G01*
X147770002Y-82197000D02*
X146869998Y-82197000D01*
G75*
G02*
X146620000Y-81947002I0J249998D01*
G01*
X146620000Y-81421998D01*
G75*
G02*
X146869998Y-81172000I249998J0D01*
G01*
X147770002Y-81172000D01*
G75*
G02*
X148020000Y-81421998I0J-249998D01*
G01*
X148020000Y-81947002D01*
G75*
G02*
X147770002Y-82197000I-249998J0D01*
G01*
G37*
G36*
G01*
X147770002Y-80372000D02*
X146869998Y-80372000D01*
G75*
G02*
X146620000Y-80122002I0J249998D01*
G01*
X146620000Y-79596998D01*
G75*
G02*
X146869998Y-79347000I249998J0D01*
G01*
X147770002Y-79347000D01*
G75*
G02*
X148020000Y-79596998I0J-249998D01*
G01*
X148020000Y-80122002D01*
G75*
G02*
X147770002Y-80372000I-249998J0D01*
G01*
G37*
%TD*%
D10*
%TO.C,SW1*%
X124079000Y-85852000D03*
D11*
X126619000Y-85852000D03*
X129159000Y-85852000D03*
%TD*%
D25*
%TO.C,U2*%
X140030200Y-114427000D03*
X140030200Y-113157000D03*
X140030200Y-111887000D03*
X140030200Y-110617000D03*
X140030200Y-109347000D03*
X140030200Y-108077000D03*
X140030200Y-106807000D03*
X144957800Y-106807000D03*
X144957800Y-108077000D03*
X144957800Y-109347000D03*
X144957800Y-110617000D03*
X144957800Y-111887000D03*
X144957800Y-113157000D03*
X144957800Y-114427000D03*
%TD*%
D26*
%TO.C,U5*%
X173506000Y-92066000D03*
D27*
X175006000Y-96266000D03*
D26*
X176006000Y-92066000D03*
X173506000Y-100466000D03*
X176006000Y-100466000D03*
%TD*%
D28*
%TO.C,U6*%
X158868000Y-121142000D03*
X158868000Y-118642000D03*
X167268000Y-121142000D03*
D29*
X163068000Y-120142000D03*
D28*
X167268000Y-118642000D03*
%TD*%
D30*
%TO.C,U9*%
X163068000Y-109223000D03*
X163068000Y-111763000D03*
X163068000Y-114303000D03*
X168148000Y-109223000D03*
X168148000Y-111763000D03*
X168148000Y-114303000D03*
%TD*%
D26*
%TO.C,U11*%
X173506000Y-105020000D03*
D27*
X175006000Y-109220000D03*
D26*
X176006000Y-105020000D03*
X173506000Y-113420000D03*
X176006000Y-113420000D03*
%TD*%
%TO.C,C4*%
G36*
G01*
X158946000Y-112235000D02*
X158946000Y-111285000D01*
G75*
G02*
X159196000Y-111035000I250000J0D01*
G01*
X159696000Y-111035000D01*
G75*
G02*
X159946000Y-111285000I0J-250000D01*
G01*
X159946000Y-112235000D01*
G75*
G02*
X159696000Y-112485000I-250000J0D01*
G01*
X159196000Y-112485000D01*
G75*
G02*
X158946000Y-112235000I0J250000D01*
G01*
G37*
G36*
G01*
X157046000Y-112235000D02*
X157046000Y-111285000D01*
G75*
G02*
X157296000Y-111035000I250000J0D01*
G01*
X157796000Y-111035000D01*
G75*
G02*
X158046000Y-111285000I0J-250000D01*
G01*
X158046000Y-112235000D01*
G75*
G02*
X157796000Y-112485000I-250000J0D01*
G01*
X157296000Y-112485000D01*
G75*
G02*
X157046000Y-112235000I0J250000D01*
G01*
G37*
%TD*%
%TO.C,C14*%
G36*
G01*
X149573000Y-105341000D02*
X148623000Y-105341000D01*
G75*
G02*
X148373000Y-105091000I0J250000D01*
G01*
X148373000Y-104591000D01*
G75*
G02*
X148623000Y-104341000I250000J0D01*
G01*
X149573000Y-104341000D01*
G75*
G02*
X149823000Y-104591000I0J-250000D01*
G01*
X149823000Y-105091000D01*
G75*
G02*
X149573000Y-105341000I-250000J0D01*
G01*
G37*
G36*
G01*
X149573000Y-107241000D02*
X148623000Y-107241000D01*
G75*
G02*
X148373000Y-106991000I0J250000D01*
G01*
X148373000Y-106491000D01*
G75*
G02*
X148623000Y-106241000I250000J0D01*
G01*
X149573000Y-106241000D01*
G75*
G02*
X149823000Y-106491000I0J-250000D01*
G01*
X149823000Y-106991000D01*
G75*
G02*
X149573000Y-107241000I-250000J0D01*
G01*
G37*
%TD*%
%TO.C,C15*%
G36*
G01*
X152179000Y-103198000D02*
X153129000Y-103198000D01*
G75*
G02*
X153379000Y-103448000I0J-250000D01*
G01*
X153379000Y-103948000D01*
G75*
G02*
X153129000Y-104198000I-250000J0D01*
G01*
X152179000Y-104198000D01*
G75*
G02*
X151929000Y-103948000I0J250000D01*
G01*
X151929000Y-103448000D01*
G75*
G02*
X152179000Y-103198000I250000J0D01*
G01*
G37*
G36*
G01*
X152179000Y-105098000D02*
X153129000Y-105098000D01*
G75*
G02*
X153379000Y-105348000I0J-250000D01*
G01*
X153379000Y-105848000D01*
G75*
G02*
X153129000Y-106098000I-250000J0D01*
G01*
X152179000Y-106098000D01*
G75*
G02*
X151929000Y-105848000I0J250000D01*
G01*
X151929000Y-105348000D01*
G75*
G02*
X152179000Y-105098000I250000J0D01*
G01*
G37*
%TD*%
%TO.C,C16*%
G36*
G01*
X130122000Y-106647000D02*
X130122000Y-105697000D01*
G75*
G02*
X130372000Y-105447000I250000J0D01*
G01*
X130872000Y-105447000D01*
G75*
G02*
X131122000Y-105697000I0J-250000D01*
G01*
X131122000Y-106647000D01*
G75*
G02*
X130872000Y-106897000I-250000J0D01*
G01*
X130372000Y-106897000D01*
G75*
G02*
X130122000Y-106647000I0J250000D01*
G01*
G37*
G36*
G01*
X132022000Y-106647000D02*
X132022000Y-105697000D01*
G75*
G02*
X132272000Y-105447000I250000J0D01*
G01*
X132772000Y-105447000D01*
G75*
G02*
X133022000Y-105697000I0J-250000D01*
G01*
X133022000Y-106647000D01*
G75*
G02*
X132772000Y-106897000I-250000J0D01*
G01*
X132272000Y-106897000D01*
G75*
G02*
X132022000Y-106647000I0J250000D01*
G01*
G37*
%TD*%
%TO.C,C17*%
G36*
G01*
X135202000Y-102837000D02*
X135202000Y-101887000D01*
G75*
G02*
X135452000Y-101637000I250000J0D01*
G01*
X135952000Y-101637000D01*
G75*
G02*
X136202000Y-101887000I0J-250000D01*
G01*
X136202000Y-102837000D01*
G75*
G02*
X135952000Y-103087000I-250000J0D01*
G01*
X135452000Y-103087000D01*
G75*
G02*
X135202000Y-102837000I0J250000D01*
G01*
G37*
G36*
G01*
X137102000Y-102837000D02*
X137102000Y-101887000D01*
G75*
G02*
X137352000Y-101637000I250000J0D01*
G01*
X137852000Y-101637000D01*
G75*
G02*
X138102000Y-101887000I0J-250000D01*
G01*
X138102000Y-102837000D01*
G75*
G02*
X137852000Y-103087000I-250000J0D01*
G01*
X137352000Y-103087000D01*
G75*
G02*
X137102000Y-102837000I0J250000D01*
G01*
G37*
%TD*%
D31*
%TO.C,R7*%
X134366000Y-66294000D03*
D32*
X129286000Y-66294000D03*
%TD*%
%TO.C,R9*%
X134493000Y-69977000D03*
D31*
X139573000Y-69977000D03*
%TD*%
D32*
%TO.C,R10*%
X156210000Y-91059000D03*
D31*
X156210000Y-96139000D03*
%TD*%
%TO.C,R11*%
X153797000Y-101219000D03*
D32*
X153797000Y-96139000D03*
%TD*%
%TO.C,R16*%
G36*
G01*
X132911002Y-86341000D02*
X132010998Y-86341000D01*
G75*
G02*
X131761000Y-86091002I0J249998D01*
G01*
X131761000Y-85565998D01*
G75*
G02*
X132010998Y-85316000I249998J0D01*
G01*
X132911002Y-85316000D01*
G75*
G02*
X133161000Y-85565998I0J-249998D01*
G01*
X133161000Y-86091002D01*
G75*
G02*
X132911002Y-86341000I-249998J0D01*
G01*
G37*
G36*
G01*
X132911002Y-88166000D02*
X132010998Y-88166000D01*
G75*
G02*
X131761000Y-87916002I0J249998D01*
G01*
X131761000Y-87390998D01*
G75*
G02*
X132010998Y-87141000I249998J0D01*
G01*
X132911002Y-87141000D01*
G75*
G02*
X133161000Y-87390998I0J-249998D01*
G01*
X133161000Y-87916002D01*
G75*
G02*
X132911002Y-88166000I-249998J0D01*
G01*
G37*
%TD*%
%TO.C,R17*%
G36*
G01*
X154362998Y-111271000D02*
X155263002Y-111271000D01*
G75*
G02*
X155513000Y-111520998I0J-249998D01*
G01*
X155513000Y-112046002D01*
G75*
G02*
X155263002Y-112296000I-249998J0D01*
G01*
X154362998Y-112296000D01*
G75*
G02*
X154113000Y-112046002I0J249998D01*
G01*
X154113000Y-111520998D01*
G75*
G02*
X154362998Y-111271000I249998J0D01*
G01*
G37*
G36*
G01*
X154362998Y-109446000D02*
X155263002Y-109446000D01*
G75*
G02*
X155513000Y-109695998I0J-249998D01*
G01*
X155513000Y-110221002D01*
G75*
G02*
X155263002Y-110471000I-249998J0D01*
G01*
X154362998Y-110471000D01*
G75*
G02*
X154113000Y-110221002I0J249998D01*
G01*
X154113000Y-109695998D01*
G75*
G02*
X154362998Y-109446000I249998J0D01*
G01*
G37*
%TD*%
%TO.C,R19*%
G36*
G01*
X151072002Y-111026000D02*
X150171998Y-111026000D01*
G75*
G02*
X149922000Y-110776002I0J249998D01*
G01*
X149922000Y-110250998D01*
G75*
G02*
X150171998Y-110001000I249998J0D01*
G01*
X151072002Y-110001000D01*
G75*
G02*
X151322000Y-110250998I0J-249998D01*
G01*
X151322000Y-110776002D01*
G75*
G02*
X151072002Y-111026000I-249998J0D01*
G01*
G37*
G36*
G01*
X151072002Y-109201000D02*
X150171998Y-109201000D01*
G75*
G02*
X149922000Y-108951002I0J249998D01*
G01*
X149922000Y-108425998D01*
G75*
G02*
X150171998Y-108176000I249998J0D01*
G01*
X151072002Y-108176000D01*
G75*
G02*
X151322000Y-108425998I0J-249998D01*
G01*
X151322000Y-108951002D01*
G75*
G02*
X151072002Y-109201000I-249998J0D01*
G01*
G37*
%TD*%
%TO.C,R20*%
G36*
G01*
X157422002Y-106153000D02*
X156521998Y-106153000D01*
G75*
G02*
X156272000Y-105903002I0J249998D01*
G01*
X156272000Y-105377998D01*
G75*
G02*
X156521998Y-105128000I249998J0D01*
G01*
X157422002Y-105128000D01*
G75*
G02*
X157672000Y-105377998I0J-249998D01*
G01*
X157672000Y-105903002D01*
G75*
G02*
X157422002Y-106153000I-249998J0D01*
G01*
G37*
G36*
G01*
X157422002Y-107978000D02*
X156521998Y-107978000D01*
G75*
G02*
X156272000Y-107728002I0J249998D01*
G01*
X156272000Y-107202998D01*
G75*
G02*
X156521998Y-106953000I249998J0D01*
G01*
X157422002Y-106953000D01*
G75*
G02*
X157672000Y-107202998I0J-249998D01*
G01*
X157672000Y-107728002D01*
G75*
G02*
X157422002Y-107978000I-249998J0D01*
G01*
G37*
%TD*%
%TO.C,R21*%
G36*
G01*
X155263002Y-106153000D02*
X154362998Y-106153000D01*
G75*
G02*
X154113000Y-105903002I0J249998D01*
G01*
X154113000Y-105377998D01*
G75*
G02*
X154362998Y-105128000I249998J0D01*
G01*
X155263002Y-105128000D01*
G75*
G02*
X155513000Y-105377998I0J-249998D01*
G01*
X155513000Y-105903002D01*
G75*
G02*
X155263002Y-106153000I-249998J0D01*
G01*
G37*
G36*
G01*
X155263002Y-107978000D02*
X154362998Y-107978000D01*
G75*
G02*
X154113000Y-107728002I0J249998D01*
G01*
X154113000Y-107202998D01*
G75*
G02*
X154362998Y-106953000I249998J0D01*
G01*
X155263002Y-106953000D01*
G75*
G02*
X155513000Y-107202998I0J-249998D01*
G01*
X155513000Y-107728002D01*
G75*
G02*
X155263002Y-107978000I-249998J0D01*
G01*
G37*
%TD*%
%TO.C,R22*%
G36*
G01*
X144371000Y-104336002D02*
X144371000Y-103435998D01*
G75*
G02*
X144620998Y-103186000I249998J0D01*
G01*
X145146002Y-103186000D01*
G75*
G02*
X145396000Y-103435998I0J-249998D01*
G01*
X145396000Y-104336002D01*
G75*
G02*
X145146002Y-104586000I-249998J0D01*
G01*
X144620998Y-104586000D01*
G75*
G02*
X144371000Y-104336002I0J249998D01*
G01*
G37*
G36*
G01*
X146196000Y-104336002D02*
X146196000Y-103435998D01*
G75*
G02*
X146445998Y-103186000I249998J0D01*
G01*
X146971002Y-103186000D01*
G75*
G02*
X147221000Y-103435998I0J-249998D01*
G01*
X147221000Y-104336002D01*
G75*
G02*
X146971002Y-104586000I-249998J0D01*
G01*
X146445998Y-104586000D01*
G75*
G02*
X146196000Y-104336002I0J249998D01*
G01*
G37*
%TD*%
%TO.C,R23*%
G36*
G01*
X148825000Y-102292998D02*
X148825000Y-103193002D01*
G75*
G02*
X148575002Y-103443000I-249998J0D01*
G01*
X148049998Y-103443000D01*
G75*
G02*
X147800000Y-103193002I0J249998D01*
G01*
X147800000Y-102292998D01*
G75*
G02*
X148049998Y-102043000I249998J0D01*
G01*
X148575002Y-102043000D01*
G75*
G02*
X148825000Y-102292998I0J-249998D01*
G01*
G37*
G36*
G01*
X150650000Y-102292998D02*
X150650000Y-103193002D01*
G75*
G02*
X150400002Y-103443000I-249998J0D01*
G01*
X149874998Y-103443000D01*
G75*
G02*
X149625000Y-103193002I0J249998D01*
G01*
X149625000Y-102292998D01*
G75*
G02*
X149874998Y-102043000I249998J0D01*
G01*
X150400002Y-102043000D01*
G75*
G02*
X150650000Y-102292998I0J-249998D01*
G01*
G37*
%TD*%
%TO.C,R24*%
G36*
G01*
X147800000Y-100907002D02*
X147800000Y-100006998D01*
G75*
G02*
X148049998Y-99757000I249998J0D01*
G01*
X148575002Y-99757000D01*
G75*
G02*
X148825000Y-100006998I0J-249998D01*
G01*
X148825000Y-100907002D01*
G75*
G02*
X148575002Y-101157000I-249998J0D01*
G01*
X148049998Y-101157000D01*
G75*
G02*
X147800000Y-100907002I0J249998D01*
G01*
G37*
G36*
G01*
X149625000Y-100907002D02*
X149625000Y-100006998D01*
G75*
G02*
X149874998Y-99757000I249998J0D01*
G01*
X150400002Y-99757000D01*
G75*
G02*
X150650000Y-100006998I0J-249998D01*
G01*
X150650000Y-100907002D01*
G75*
G02*
X150400002Y-101157000I-249998J0D01*
G01*
X149874998Y-101157000D01*
G75*
G02*
X149625000Y-100907002I0J249998D01*
G01*
G37*
%TD*%
%TO.C,R25*%
G36*
G01*
X140180000Y-104336002D02*
X140180000Y-103435998D01*
G75*
G02*
X140429998Y-103186000I249998J0D01*
G01*
X140955002Y-103186000D01*
G75*
G02*
X141205000Y-103435998I0J-249998D01*
G01*
X141205000Y-104336002D01*
G75*
G02*
X140955002Y-104586000I-249998J0D01*
G01*
X140429998Y-104586000D01*
G75*
G02*
X140180000Y-104336002I0J249998D01*
G01*
G37*
G36*
G01*
X142005000Y-104336002D02*
X142005000Y-103435998D01*
G75*
G02*
X142254998Y-103186000I249998J0D01*
G01*
X142780002Y-103186000D01*
G75*
G02*
X143030000Y-103435998I0J-249998D01*
G01*
X143030000Y-104336002D01*
G75*
G02*
X142780002Y-104586000I-249998J0D01*
G01*
X142254998Y-104586000D01*
G75*
G02*
X142005000Y-104336002I0J249998D01*
G01*
G37*
%TD*%
%TO.C,R26*%
G36*
G01*
X142005000Y-102050002D02*
X142005000Y-101149998D01*
G75*
G02*
X142254998Y-100900000I249998J0D01*
G01*
X142780002Y-100900000D01*
G75*
G02*
X143030000Y-101149998I0J-249998D01*
G01*
X143030000Y-102050002D01*
G75*
G02*
X142780002Y-102300000I-249998J0D01*
G01*
X142254998Y-102300000D01*
G75*
G02*
X142005000Y-102050002I0J249998D01*
G01*
G37*
G36*
G01*
X140180000Y-102050002D02*
X140180000Y-101149998D01*
G75*
G02*
X140429998Y-100900000I249998J0D01*
G01*
X140955002Y-100900000D01*
G75*
G02*
X141205000Y-101149998I0J-249998D01*
G01*
X141205000Y-102050002D01*
G75*
G02*
X140955002Y-102300000I-249998J0D01*
G01*
X140429998Y-102300000D01*
G75*
G02*
X140180000Y-102050002I0J249998D01*
G01*
G37*
%TD*%
%TO.C,R27*%
G36*
G01*
X136290000Y-106876002D02*
X136290000Y-105975998D01*
G75*
G02*
X136539998Y-105726000I249998J0D01*
G01*
X137065002Y-105726000D01*
G75*
G02*
X137315000Y-105975998I0J-249998D01*
G01*
X137315000Y-106876002D01*
G75*
G02*
X137065002Y-107126000I-249998J0D01*
G01*
X136539998Y-107126000D01*
G75*
G02*
X136290000Y-106876002I0J249998D01*
G01*
G37*
G36*
G01*
X134465000Y-106876002D02*
X134465000Y-105975998D01*
G75*
G02*
X134714998Y-105726000I249998J0D01*
G01*
X135240002Y-105726000D01*
G75*
G02*
X135490000Y-105975998I0J-249998D01*
G01*
X135490000Y-106876002D01*
G75*
G02*
X135240002Y-107126000I-249998J0D01*
G01*
X134714998Y-107126000D01*
G75*
G02*
X134465000Y-106876002I0J249998D01*
G01*
G37*
%TD*%
%TO.C,R28*%
G36*
G01*
X134465000Y-109797002D02*
X134465000Y-108896998D01*
G75*
G02*
X134714998Y-108647000I249998J0D01*
G01*
X135240002Y-108647000D01*
G75*
G02*
X135490000Y-108896998I0J-249998D01*
G01*
X135490000Y-109797002D01*
G75*
G02*
X135240002Y-110047000I-249998J0D01*
G01*
X134714998Y-110047000D01*
G75*
G02*
X134465000Y-109797002I0J249998D01*
G01*
G37*
G36*
G01*
X136290000Y-109797002D02*
X136290000Y-108896998D01*
G75*
G02*
X136539998Y-108647000I249998J0D01*
G01*
X137065002Y-108647000D01*
G75*
G02*
X137315000Y-108896998I0J-249998D01*
G01*
X137315000Y-109797002D01*
G75*
G02*
X137065002Y-110047000I-249998J0D01*
G01*
X136539998Y-110047000D01*
G75*
G02*
X136290000Y-109797002I0J249998D01*
G01*
G37*
%TD*%
D13*
%TO.C,R29*%
X128016000Y-97155000D03*
D33*
X128016000Y-104775000D03*
%TD*%
D20*
%TO.C,RV1*%
X152868000Y-118872000D03*
X150368000Y-118872000D03*
D21*
X147868000Y-118872000D03*
%TD*%
D10*
%TO.C,J1*%
X123698000Y-96012000D03*
D11*
X123698000Y-93472000D03*
X123698000Y-90932000D03*
%TD*%
D13*
%TO.C,R18*%
X143002000Y-118110000D03*
D33*
X135382000Y-118110000D03*
%TD*%
M02*
